<?xml version="1.0" encoding="UTF-8" standalone="no"?>
<svg
   xmlns:dc="http://purl.org/dc/elements/1.1/"
   xmlns:cc="http://creativecommons.org/ns#"
   xmlns:rdf="http://www.w3.org/1999/02/22-rdf-syntax-ns#"
   xmlns:svg="http://www.w3.org/2000/svg"
   xmlns="http://www.w3.org/2000/svg"
   xmlns:sodipodi="http://sodipodi.sourceforge.net/DTD/sodipodi-0.dtd"
   xmlns:inkscape="http://www.inkscape.org/namespaces/inkscape"
   width="329.3999938964844mm"
   height="225.6999969482422mm"
   viewBox="-164.6999969482422 -112.8499984741211 329.3999938964844 225.6999969482422"
   version="1.1"
   id="svg4559"
   sodipodi:docname="clean-novena-top.svg"
   inkscape:version="0.92.1 r15371">
  <metadata
     id="metadata4565">
    <rdf:RDF>
      <cc:Work
         rdf:about="">
        <dc:format>image/svg+xml</dc:format>
        <dc:type
           rdf:resource="http://purl.org/dc/dcmitype/StillImage" />
        <dc:title>svgOutput</dc:title>
      </cc:Work>
    </rdf:RDF>
  </metadata>
  <defs
     id="defs4563" />
  <sodipodi:namedview
     pagecolor="#ffffff"
     bordercolor="#666666"
     borderopacity="1"
     objecttolerance="10"
     gridtolerance="10"
     guidetolerance="10"
     inkscape:pageopacity="0"
     inkscape:pageshadow="2"
     inkscape:window-width="2556"
     inkscape:window-height="1400"
     id="namedview4561"
     showgrid="false"
     inkscape:zoom="1.0071455"
     inkscape:cx="792.3758"
     inkscape:cy="441.60278"
     inkscape:window-x="0"
     inkscape:window-y="18"
     inkscape:window-maximized="0"
     inkscape:current-layer="svg4559" />
  <title
     id="title4553">svgOutput</title>
  <desc
     id="desc4555">made with tinkercad</desc>
  <path
     d="m 141.21349,94.645523 0.004,0.04122 0.004,0.04037 0.002,0.0052 0.0317,0.10762 0.0254,0.105126 0.0321,0.0652 0.0199,0.04035 0.0307,0.07584 0.0264,0.04752 0.0111,0.01522 0.12284,0.167778 0.0782,0.07536 0.0629,0.06188 0.007,0.005 0.0694,0.05325 0.0442,0.03216 0.0528,0.0312 0.0702,0.04057 0.11904,0.04896 0.0822,0.03328 0.10656,0.02112 0.0683,0.01652 0.0456,0.01105 0.0283,6.18e-4 0.0806,0.0018 0.0957,0.0083 0.0811,-0.0036 0.10751,-0.0168 0.0869,-0.01612 0.0523,-0.01489 0.0842,-0.026 0.0504,-0.01968 0.0541,-0.0234 0.0667,-0.03456 0.10088,-0.06136 0.0725,-0.0504 0.0605,-0.05472 0.009,-0.0085 0.0887,-0.0798 1.6e-4,-1.45e-4 0.002,-0.0022 0.0505,-0.06024 0.0379,-0.04524 0.0562,-0.08632 0.0375,-0.05712 7.4e-4,-0.0016 0.04,-0.08434 0.0295,-0.06082 0.003,-0.0057 0.0317,-0.09776 0.0216,-0.0648 0.013,-0.06624 0.0182,-0.116486 0.008,-0.06767 -0.003,-0.117523 -0.005,-0.108963 -0.013,-0.06672 -0.013,-0.07036 -0.006,-0.03104 -0.002,-0.007 -0.0211,-0.06318 -0.0293,-0.09024 -0.0234,-0.05408 -0.0432,-0.08496 -0.0614,-0.100876 -0.0643,-0.08785 -0.0775,-0.0884 -0.0375,-0.03936 -0.039,-0.03215 -0.0291,-0.02401 -0.0408,-0.03599 -0.0145,-0.0096 -0.0762,-0.05042 -0.0744,-0.04784 -0.207,-0.092 -0.0998,-0.02547 -0.10561,-0.02593 -0.10295,-0.0099 -0.10849,-0.0067 -0.0879,0.0042 -0.0522,0.0032 -0.003,1.53e-4 -0.0734,0.01296 -0.0874,0.01508 -0.0567,0.01612 -0.0845,0.0264 -0.10765,0.04784 -0.0504,0.03016 -0.12048,0.06192 -0.0495,0.03973 -0.12747,0.102264 -0.0593,0.06552 -0.0715,0.0816 -0.051,0.07228 -0.0286,0.05148 -0.0566,0.09312 -0.0173,0.03993 -0.004,0.01 -0.0426,0.109719 -0.014,0.0572 -0.0195,0.06616 -0.0112,0.038 -0.006,0.04427 -0.0143,0.110733 -0.004,0.126999 0.0125,0.117523"
     id="path4809"
     style="fill:none;stroke:#0000ff;stroke-opacity:1;stroke-width:0.05;stroke-miterlimit:4;stroke-dasharray:none" />
  <path
     d="m 161.38228,111.77068 -0.23503,0.0395 -0.0927,0.0168 -0.12481,0.0139 -0.13571,0.006 -0.0941,0.003 h -0.956 -4.09601 -8.192 H 131.07201 65.536003 32.768002 0 -32.768002 -36.863998 -37.48 l -0.261001,-0.011 -0.259998,-0.035 -0.182881,-0.0446 -0.196888,-0.0507 -0.03347,-0.009 -0.126877,-0.0494 -0.09399,-0.034 -0.02409,-0.009 -0.1222,-0.0598 -0.07881,-0.0369 -0.03495,-0.0164 -0.115959,-0.0707 -0.07914,-0.0457 -0.02982,-0.0172 -0.109722,-0.0806 -0.07441,-0.0522 -0.02831,-0.0198 -0.102439,-0.0894 -0.09648,-0.0806 -0.04512,-0.0437 -0.09412,-0.0983 -0.08496,-0.0926 -0.124642,-0.15504 -0.03992,-0.057 -0.03207,-0.0458 -0.0754,-0.11336 -0.03264,-0.0538 -0.06552,-0.11908 -0.05808,-0.11136 -0.07176,-0.17264 -0.06816,-0.17568 -0.01776,-0.0605 -0.0364,-0.11388 -0.01458,-0.0597 -0.0015,-0.006 -0.04368,-0.2472 -0.02028,-0.117 -0.01508,-0.15236 -0.0053,-0.12528 -0.0016,-0.0681 v -2.354 -8.191999 -1.454003 l -0.0057,-0.135719 -0.0091,-0.156959 -0.0182,-0.135201 -0.02928,-0.169922 -0.013,-0.06656 -0.03536,-0.131561 -0.02832,-0.106079 -7.48e-4,-0.0021 -0.04553,-0.125854 -0.03168,-0.08881 -0.0026,-0.0059 -0.04782,-0.109299 -0.02756,-0.0624 -0.09828,-0.178878 -0.0868,-0.136017 -0.08168,-0.127983 -0.03796,-0.05668 -0.08268,-0.107643 -0.08256,-0.09456 -0.04472,-0.05148 -0.0018,-0.0018 -0.09441,-0.09441 -0.214081,-0.183838 -0.05148,-0.04472 -0.0093,-0.0075 -0.0437,-0.03514 -0.111282,-0.078 -0.206078,-0.125123 -0.183041,-0.09048 -0.156479,-0.07248 -0.127922,-0.04628 -0.119037,-0.04032 -0.131561,-0.03536 -0.245762,-0.04896 -0.06656,-0.013 -0.06708,-0.0104 -0.135719,-0.01196 -0.156959,-0.0091 -0.06812,-0.0016 h -5.672 -16.384003 -16.383995 -7.660004 l -0.170036,0.0099 -0.125282,0.0053 -0.02613,0.0035 -0.09867,0.01328 -0.111878,0.01691 -0.02228,0.0034 -0.09216,0.01968 -0.09932,0.02288 -0.09072,0.02496 -0.138527,0.04588 -0.02319,0.0077 -0.09412,0.03952 -0.204002,0.08208 -0.109917,0.06048 -0.005,0.0026 -0.115654,0.06032 -0.02931,0.01959 -0.07485,0.05002 -0.114921,0.07332 -0.02946,0.02315 -0.104187,0.08189 -0.0984,0.07872 -0.06864,0.06432 -0.09828,0.09412 -0.08496,0.09264 -0.08944,0.10244 -0.07632,0.09937 -0.03504,0.05231 -0.03264,0.05376 -0.151321,0.225678 -0.05808,0.111358 -0.01981,0.04049 -0.03999,0.08171 -0.048,0.116165 -0.02016,0.05952 -0.08736,0.257401 -6.79e-4,0.0025 -0.03196,0.118919 -0.0168,0.09264 -0.03952,0.235038 -0.01728,0.21888 -0.0057,0.135719 v 1.454003 8.191999 2.354 l -0.0016,0.0681 -0.01196,0.13572 -0.0091,0.15696 -0.0095,0.0542 -0.01391,0.0795 -0.01872,0.12384 -0.0085,0.0316 -0.02685,0.0999 -0.03024,0.12192 -0.01225,0.0362 -0.04991,0.14736 -0.05199,0.12584 -0.05041,0.1152 -0.06292,0.12064 -0.06048,0.10992 -0.03536,0.0582 -0.078,0.11128 -0.0696,0.10464 -0.02321,0.0278 -0.06415,0.0768 -0.07872,0.0979 -0.01903,0.019 -0.07717,0.0772 -0.08688,0.0907 -0.02338,0.0195 -0.08113,0.0678 -0.09457,0.0826 -0.02613,0.0183 -0.08514,0.0597 -0.101281,0.0744 -0.02753,0.0159 -0.09051,0.0522 -0.10704,0.0653 -0.03227,0.0151 -0.0086,0.004 -0.0824,0.0386 -0.1128,0.0552 -0.02224,0.008 -0.105682,0.0382 -0.117119,0.0456 -0.0309,0.008 -0.18174,0.0468 -0.09828,0.027 -0.0297,0.006 -0.103935,0.0206 -0.06192,0.01 -0.135201,0.0151 -0.101921,0.004 -0.188164,0.0125 h -0.161278 -2.562721 -32.768009 -16.38398 -8.192 -4.09601 -0.956 l -0.0629,-0.001 -0.0941,-0.008 -0.13572,-0.006 -0.0771,-0.0117 -0.0468,-0.007 -0.1352,-0.0182 -0.0359,-0.008 -0.064,-0.0137 -0.0917,-0.0211 -0.10725,-0.0312 -0.0233,-0.007 -0.0957,-0.0354 -0.20737,-0.0734 -0.0624,-0.0276 -0.11281,-0.0552 -0.17888,-0.0983 -0.0811,-0.048 -0.0778,-0.0533 -0.16432,-0.12064 -0.0739,-0.0581 -0.28399,-0.271 -0.0806,-0.0965 -0.12739,-0.15912 -0.0216,-0.0294 -0.0154,-0.021 -0.10608,-0.17472 -0.0948,-0.16023 -0.0171,-0.0289 -0.0504,-0.1152 -0.0577,-0.12324 -0.0403,-0.11904 -0.0463,-0.12792 -0.008,-0.0326 -0.0222,-0.0894 -0.0269,-0.0999 -0.008,-0.0316 -0.004,-0.0282 -0.0145,-0.0957 -0.0234,-0.13364 -0.009,-0.15696 -0.012,-0.13572 -0.002,-0.0681 V 108.82115 106.496 98.304001 81.919998 73.727997 65.536003 32.768002 28.672001 24.576 22.528 20.48 16.384001 0 -8.1920004 -10.24 v -2.048 -0.01869 -4.077313 -16.384001 -2.048 -2.047996 -4.096001 V -49.152 -65.536003 -81.919998 -90.112 -98.304001 -110.85 l 0.008,-0.0905 0.009,-0.0936 0.0259,-0.085 0.0317,-0.10868 0.004,-0.008 0.0205,-0.0427 0.035,-0.0701 0.0504,-0.0754 0.0782,-0.0979 0.0302,-0.0338 0.0504,-0.0458 0.048,-0.0403 0.0754,-0.0504 0.0394,-0.0259 0.0902,-0.0418 0.036,-0.0166 0.0305,-0.0141 0.12065,-0.0296 0.0398,-0.0115 0.0413,-0.008 0.073,-0.006 0.0624,-0.004 h 7.05201 7.14799 1.04401 8.19198 8.192 65.536007 H -48.5 -32.768002 -24.576 -16.384001 -12.288 -8.1920004 -4.0960002 0 8.1920004 16.384001 24.576 h 8.192002 32.768001 65.536007 8.192 H 145 l 0.81599,0.018 0.81401,0.053 0.81099,0.089 0.015,0.002 0.791,0.12169 0.80001,0.159 0.793,0.194 0.783,0.228 0.773,0.263 0.76001,0.295 0.74699,0.329 0.73199,0.361 0.71502,0.392 0.69799,0.424 0.59999,0.40088 0.078,0.0521 0.658,0.482 0.636,0.511 0.614,0.538 0.46054,0.441 0.12847,0.123 0.56399,0.589 0.538,0.614 0.511,0.636 0.48199,0.658 0.45301,0.678 0.42401,0.698 0.392,0.715 0.36099,0.732 0.32899,0.747 0.29502,0.760002 0.263,0.772995 0.13656,0.469002 0.0914,0.314003 0.194,0.792999 0.159,0.799996 0.12399,0.806 0.089,0.811004 0.053,0.813996 0.018,0.816001 v 3.038002 8.192002 16.383995 16.384003 8.192001 4.096001 4.095996 4.096001 4.096001 8.191999 V -12.288 -8.1920004 0 16.384001 20.48 v 4.096 4.096001 4.096001 16.383998 2.762158 1.333843 4.096001 6.567524 1.624477 4.096001 4.095993 8.192001 16.384003 8.191999 2.354 l -0.0125,0.18816 -0.0187,0.23712 -0.0293,0.15408 -0.0264,0.12772 -0.008,0.0387 -0.0411,0.13 -0.0262,0.09 -0.009,0.0305 -0.052,0.12584 -0.0456,0.11712 -0.0552,0.1128 -0.13624,0.23556 -0.048,0.0811 -0.0503,0.0733 -0.003,0.004 -0.0827,0.10764 -0.0581,0.0739 -0.0629,0.0701 -0.14092,0.14768 -0.0672,0.0662 -0.19057,0.15928 -0.0104,0.009 -0.11128,0.078 -0.0351,0.025 -0.0417,0.0297 -0.19104,0.108 -0.0879,0.052 -0.15342,0.0738 -0.0869,0.0365 -0.0957,0.0354 -0.0888,0.0317 -0.0605,0.0178 -0.13052,0.038 -0.0115,0.003 -0.0495,0.0121"
     id="path4807"
     style="fill:none;stroke:#0000ff;stroke-opacity:1;stroke-width:0.05;stroke-miterlimit:4;stroke-dasharray:none" />
  <path
     d="m -7.29601,-105.64912 -0.01479,-0.0752 -0.02345,-0.0917 -0.01885,-0.076 -0.00549,-0.0191 -0.015956,-0.0556 -0.02535,-0.0741 -0.02795,-0.0722 -0.0399,-0.10815 -0.015312,-0.0344 -0.016538,-0.0371 -0.03445,-0.0702 -0.0371,-0.0752 -0.031377,-0.0578 -0.00567,-0.0105 -0.04095,-0.067 -0.0434,-0.0717 -0.00589,-0.009 -0.037012,-0.0555 -0.09585,-0.13095 -0.1001,-0.1196 -0.1315999,-0.1351 -0.05395,-0.0566 -0.016055,-0.0153 -0.040495,-0.0386 -0.0185,-0.0155 -0.1011,-0.0846 -0.08435,-0.0626 -0.1274004,-0.0891 -0.07175,-0.0434 -0.06695,-0.0409 -0.00513,-0.003 -0.1333227,-0.0688 -0.1732502,-0.0746 -0.0715,-0.0319 -0.025244,-0.01 -0.046906,-0.0182 -0.1488505,-0.0468 -0.1018495,-0.0259 -0.07605,-0.0189 -0.1534005,-0.0266 -0.1456003,-0.0175 -0.07735,-0.009 -0.1169997,-0.006 -0.063001,-7e-4 -0.1169996,0.001 -0.078,0.005 -0.063,0.004 -0.02065,0.001 -0.07735,0.009 -0.08295,0.0126 -0.1534,0.0266 -0.0077,0.002 -0.06831,0.0169 -0.07475,0.0215 -0.0741,0.0254 -0.161,0.0473 -0.14365,0.0598 -0.077,0.0336 -0.09324,0.0482 -0.04521,0.0233 -0.06695,0.041 -0.06435,0.0429 -0.1435,0.0871 -0.12415,0.0949 -0.06545,0.0525 -0.11505,0.1053 -0.06055,0.0581 -0.1053,0.11505 -0.0553,0.063 -0.04875,0.0611 -0.09585,0.13095 -0.02345,0.0352 -0.01945,0.0292 -0.0434,0.0717 -0.04095,0.067 -0.004,0.007 -0.0017,0.003 -0.03138,0.0578 -0.0371,0.0752 -0.03445,0.0702 -0.03185,0.0715 -0.03045,0.0781 -0.02795,0.0721 -0.02535,0.0741 -0.0238,0.0808 -0.02145,0.0747 -0.01885,0.0761 -0.01495,0.076 -0.0117,0.0773 -0.0091,0.0774 -0.0266,0.18655 -0.0046,0.078 -7e-6,2.9e-4 -0.0019,0.0777 0.0014,0.105 0.002,0.078 0.0046,0.078 0.0252,0.16555 0.0091,0.0773 0.0117,0.0774 0.01218,0.0619 0.0028,0.0141 0.01885,0.076 0.0031,0.0107 0.01839,0.0641 0.0238,0.0808 0.02535,0.0741 0.02795,0.0721 0.03185,0.0715 0.03885,0.0973 0.03445,0.0702 0.0073,0.0135 0.02973,0.0548 0.02854,0.0531 0.02116,0.0393 0.04095,0.0669 0.04185,0.0572 0.0572,0.0782 0.0429,0.0644 0.04615,0.063 0.04875,0.0611 0.1053,0.11505 0.0581,0.0605 0.11505,0.1053 0.063,0.0553 0.12415,0.0949 0.0679,0.0497 0.1313,0.0839 0.07175,0.0434 0.13845,0.0715 0.17325,0.0746 0.0715,0.0319 0.02524,0.01 0.04691,0.0182 0.1118,0.0358 0.0812,0.0217 0.1131,0.0299 0.236,0.041 0.119,0.0105 0.12,0.0105 0.3599998,-0.007 0.2379999,-0.032 0.2340002,-0.052 0.2290001,-0.072 0.2209997,-0.092 0.1384506,-0.0715 0.0924,-0.0497 0.1313,-0.0838 0.07,-0.0465 0.06305,-0.0461 0.06545,-0.0525 0.08535,-0.0714 0.03425,-0.0287 0.05655,-0.054 0.05395,-0.0566 0.05135,-0.0585 0.11585,-0.1211 0.04875,-0.0611 0.00486,-0.007 0.018578,-0.0254 0.022714,-0.031 0.0429,-0.0644 0.04095,-0.0669 0.0931,-0.13965 0.03705,-0.0683 1.888e-4,-3.8e-4 0.034261,-0.0698 0.03185,-0.0715 0.02795,-0.0721 0.06755,-0.1533 0.02535,-0.0741 0.0238,-0.0808 0.018394,-0.0641 0.00306,-0.0107 0.01885,-0.076 0.02415,-0.14455 0.01495,-0.0761 0.0117,-0.0773 0.00243,-0.0207 0.00667,-0.0567 0.00455,-0.078 0.00315,-0.105 0.00195,-0.078 -0.00195,-0.078 -0.0182,-0.1666 -0.00455,-0.078 -0.0091,-0.0773 -0.0117,-0.0774 -1.602e-4,-8.2e-4"
     id="path4805"
     style="fill:none;stroke:#0000ff;stroke-opacity:1;stroke-width:0.05;stroke-miterlimit:4;stroke-dasharray:none" />
  <path
     d="m 143.43236,90.398758 0.0817,-0.08476 0.005,-0.0082 0.0669,-0.103065 0.0322,-0.04416 0.0279,-0.04656 0.003,-0.0059 0.0318,-0.06802 0.0219,-0.04703 0.003,-0.0065 0.0317,-0.09776 0.0194,-0.05832 0.002,-0.0065 0.0173,-0.0936 0.014,-0.07228 0.004,-0.09204 0.002,-0.108482 -0.004,-0.08476 -0.007,-0.06096 -0.014,-0.07228 -0.0163,-0.07296 -0.0161,-0.05668 -0.0178,-0.05136 -0.0213,-0.0546 -0.0216,-0.04992 -0.0216,-0.04324 -0.005,-0.0098 -0.0566,-0.09312 -0.0302,-0.05044 -0.0348,-0.04784 -0.048,-0.05712 -0.039,-0.0442 -0.0437,-0.04272 -0.0396,-0.0377 -0.003,-0.0029 -0.088,-0.071 -0.095,-0.063 -0.099,-0.055 -0.10401,-0.045 -0.10699,-0.037 -0.10655,-0.02112 -0.0863,-0.0182 -0.008,-5.49e-4 -0.10924,-0.0072 -0.0816,-0.0029 -0.0816,0.0062 -0.0544,0.0058 -0.0626,0.0067 -0.0533,0.01104 -0.0957,0.02652 -0.0523,0.01488 -0.0566,0.02304 -0.0977,0.04368 -0.0547,0.02736 -0.0983,0.065 -0.0787,0.05376 -0.16301,0.156998 -0.13398,0.182998 -0.077,0.156311 -0.023,0.04669 -0.0192,0.05564 -0.0307,0.104156 -0.0182,0.08633 -0.008,0.08839 -0.0115,0.108482 5.2e-4,0.0084 0.006,0.10009 0.004,0.08788 0.002,0.0116 0.0131,0.07576 0.0259,0.105598 0.0374,0.111283 0.0217,0.04877 0.0225,0.05058 0.0219,0.04004 0.0348,0.06344 0.06,0.09072 0.0348,0.04784 0.0982,0.101913 0.0588,0.06108 0.12063,0.08373 0.0422,0.03408 0.0456,0.03024 0.0877,0.04318 0.01,0.0048 0.0514,0.01776 0.19294,0.07124 0.21951,0.03332 0.0666,0.0036 0.0811,-0.0036 0.095,-0.0048 0.11543,-0.02288 0.0931,-0.01968 0.0514,-0.01776 0.0827,-0.0312 0.0739,-0.03504 0.0785,-0.04004 0.0691,-0.04321 0.0952,-0.06968 0.0452,-0.03857 0.0167,-0.01422 0.0557,-0.05952"
     id="path4803"
     style="fill:none;stroke:#0000ff;stroke-opacity:1;stroke-width:0.05;stroke-miterlimit:4;stroke-dasharray:none" />
  <path
     d="m 12.7424,92.581001 -0.04861,0.05906 -0.0095,0.0115 -0.05712,0.102722 -0.06585,0.112953 -0.0018,0.003 -0.03172,0.08684 -0.02736,0.07344 -0.01248,0.05088 -0.01872,0.08268 -0.0022,0.01992 -0.004,0.03624 -0.01104,0.104164 -0.0016,0.04264 0.0038,0.07824 0.0078,0.0988 0.02016,0.102234 0.02704,0.110244 0.08064,0.170876 0.02028,0.05252 0.0182,0.03848 0.01836,0.02946 0.01958,0.0314 0.01458,0.02338 0.08016,0.09505 0.0082,0.01028 0.02714,0.03392 0.08216,0.07852 0.0816,0.06528 0.08164,0.05616 0.09168,0.0504 0.08944,0.04264 0.07392,0.0264 0.10868,0.03172 0.07632,0.01728 0.05616,0.0083 0.05184,0.0058 0.08476,0.0031 0.10464,-0.0024 0.08476,-0.0068 0.03926,-0.0066 0.03178,-0.0054 0.05664,-0.01632 0.11024,-0.02704 0.199,-0.08701 0.04464,-0.02736 0.09412,-0.06292 0.04264,-0.03744 0.09552,-0.0792 0.01915,-0.02149 0.02021,-0.02267 0.01486,-0.01692 0.06002,-0.06836 0.0312,-0.04732 0.05808,-0.08688 0.0023,-0.0047 0.02074,-0.04234 0.05044,-0.101395 0.01872,-0.04848 0.02496,-0.08111 0.02496,-0.101761 0.01508,-0.08372 0.0036,-0.05669 0.0067,-0.110878 -0.0073,-0.112839 -0.0067,-0.07152 -0.02704,-0.110244 -0.01008,-0.05136 -0.01073,-0.03346 -0.01327,-0.04141 -0.02964,-0.07176 -0.03264,-0.07104 -0.04576,-0.08008 -0.02736,-0.04464 -0.03504,-0.04703 -0.05096,-0.0676 -0.04896,-0.05328 -0.03952,-0.04109 -0.17,-0.135994 -0.058,-0.03189 -0.133,-0.07311 -0.206,-0.07 -0.04765,-0.006 -0.09275,-0.01168 -0.05136,-0.01009 -0.05882,-0.0038 -0.04534,-0.0029 -0.11284,0.0073 -0.07824,0.0072 -0.06588,0.014 -0.01732,0.0037 -0.10128,0.02496 -0.07296,0.02928 -0.10556,0.04109 -0.0082,0.0046 -0.03741,0.02087 -0.09672,0.05876 -0.0442,0.03536 -0.08448,0.06144 -0.03792,0.03648 -0.06968,0.07124 -0.026,0.03328"
     id="path4801"
     style="fill:none;stroke:#0000ff;stroke-opacity:1;stroke-width:0.05;stroke-miterlimit:4;stroke-dasharray:none" />
  <path
     d="m 145.38252,83.875923 0.0255,0.0154 0.0158,0.0096 0.0312,0.01526 0.012,0.0059 0.0912,0.0312 0.0412,0.0148 0.0326,0.01172 0.0827,0.0182 0.095,0.0144 0.12325,0.0047 0.096,-0.0019 0.0775,-0.01041 0.0653,-0.01152 0.0863,-0.02515 0.0136,-0.004 0.0744,-0.02304 0.0712,-0.03276 0.0864,-0.04272 0.0868,-0.05772 0.0773,-0.05664 0.039,-0.03432 0.0629,-0.0648 0.0686,-0.07852 0.0422,-0.05856 0.0541,-0.08892 0.036,-0.06912 0.0213,-0.04784 0.0255,-0.06768 0.0166,-0.0494 0.0125,-0.05096 0.0158,-0.08256 0.008,-0.05148 0.003,-0.052 4.9e-4,-0.011 0.004,-0.097 -7.1e-4,-0.03641 -3.2e-4,-0.01559 -0.0156,-0.102959 -0.005,-0.03986 -0.004,-0.03165 -0.0338,-0.0988 -0.0202,-0.06914 -0.007,-0.02303 -0.0499,-0.09152 -0.0427,-0.0864 -0.0485,-0.06864 -0.0307,-0.04212 -0.059,-0.06 -0.0343,-0.039 -0.029,-0.02536 -0.0495,-0.04327 -0.0725,-0.05325 -0.005,-0.0039 -0.0889,-0.05408 -0.0859,-0.04272 -0.0972,-0.03796 -0.0926,-0.02688 -0.0764,-0.01664 -0.0927,-0.0096 -0.0582,-0.0062 -0.002,1.5e-5 -0.0699,5.04e-4 -0.0629,9.61e-4 -0.10296,0.0156 -0.083,0.01392 -0.19,0.065 -0.176,0.096 -0.007,0.006 -0.14852,0.119003 -0.13198,0.151001 -0.0291,0.04368 -0.0499,0.08208 -0.0463,0.09308 -0.0279,0.06673 -0.0132,0.04238 -0.008,0.02625 -0.012,0.0572 -0.0226,0.0936 -0.006,0.052 -0.006,0.08895 -4.6e-4,0.007 0.003,0.048 0.002,0.053 0.003,0.077 0.0187,0.09456 0.0244,0.101395 0.035,0.08976 0.0192,0.04836 0.0328,0.06344 0.0365,0.06192 0.04,0.0598 0.0437,0.0576 0.0249,0.03016 0.069,0.073 0.075,0.066 0.081,0.059 0.0915,0.04993"
     id="path4799"
     style="fill:none;stroke:#0000ff;stroke-opacity:1;stroke-width:0.05;stroke-miterlimit:4;stroke-dasharray:none" />
  <path
     d="m -14.56768,-105.58012 -0.03432,-0.11388 -0.01342,-0.0271 -0.102575,-0.20692 -0.0744,-0.10128 -0.05928,-0.0832 -0.0071,-0.007 -0.0534,-0.0538 -0.08684,-0.0926 -0.02384,-0.019 -0.104164,-0.083 -0.12557,-0.0801 -0.02643,-0.0169 -0.06812,-0.031 -0.02444,-0.0111 -0.05616,-0.0278 -0.11904,-0.0403 -0.10556,-0.0333 -0.06144,-0.012 -0.09204,-0.0161 -0.0624,-0.007 -0.13572,-0.003 -0.12528,0.002 -0.09256,0.012 -0.04098,0.006 -0.02142,0.003 -0.09984,0.0262 -0.0073,0.002 -0.06096,0.0149 -0.10272,0.0389 -0.09412,0.0385 -0.0099,0.006 -0.09182,0.0528 -0.0598,0.0328 -0.0702,0.0478 -0.0912,0.0744 -0.06448,0.0556 -0.03588,0.0364 -0.06432,0.0686 -0.05356,0.0655 -0.02912,0.0421 -0.05376,0.0773 -0.0024,0.004 -0.01529,0.0252 -0.04272,0.084 -0.03848,0.0759 -0.03016,0.0796 -0.02913,0.0772 -0.004,0.0106 -0.02912,0.1326 -0.01776,0.0768 -0.0066,0.12426 -0.0025,0.0476 -0.0036,0.0338 -0.0026,0.0343 8.53e-4,0.0334 0.0017,0.0685 0.01872,0.12384 0.0036,0.0338 0.0062,0.0314 0.01354,0.0684 0.03276,0.0967 0.01404,0.0312 0.06048,0.16176 0.02122,0.0397 0.01882,0.0352 0.03648,0.0605 0.04784,0.0702 0.07536,0.095 0.03276,0.0395 0.05928,0.0608 0.07632,0.0734 0.03848,0.0333 0.104639,0.0696 0.05512,0.04 0.04832,0.0288 0.0172,0.0102 0.08544,0.0389 0.08476,0.0395 0.0082,0.003 0.05632,0.0191 0.09504,0.0296 0.0096,0.003 0.121158,0.0244 0.108962,0.0154 h 0.199159 l 0.06288,0.001 0.01337,-0.001 0.111429,-0.012 0.06096,-0.0149 0.11648,-0.0244 0.04219,-0.0143 0.01733,-0.006 0.08496,-0.0403 0.12636,-0.0494 0.0669,-0.0423 0.01278,-0.008 0.11648,-0.0707 0.01725,-0.0139 0.03171,-0.0255 0.09828,-0.0874 0.08688,-0.0902 0.06916,-0.0801 0.03696,-0.0509 0.03796,-0.0567 0.04656,-0.0816 0.0106,-0.0208 0.03353,-0.0658 0.0099,-0.0195 0.02808,-0.0801 0.0504,-0.132 0.01248,-0.0494 0.01824,-0.0922 0.0156,-0.10088 0.0053,-0.0979 0.0026,-0.10192 -0.0082,-0.1056 -0.0042,-0.051 -0.01404,-0.0842 -0.01968,-0.0922 -0.02016,-0.0595"
     id="path4797"
     style="fill:none;stroke:#0000ff;stroke-opacity:1;stroke-width:0.05;stroke-miterlimit:4;stroke-dasharray:none" />
  <path
     d="m 155.21899,53.27388 -0.0465,0.119083 -0.003,0.0073 -0.0192,0.0832 -0.028,0.114823 -0.002,0.0071 -0.0104,0.10556 -0.007,0.0624 -0.001,0.07824 0.002,0.09776 0.008,0.07824 0.0281,0.15028 0.012,0.06144 0.0622,0.183517 0.0882,0.177841 0.0374,0.06 0.0593,0.0832 0.0528,0.06864 0.0615,0.06813 0.007,0.0073 0.0432,0.04512 0.085,0.06834 0.0129,0.01038 0.051,0.04524 0.11336,0.0754 0.0538,0.03264 0.239,0.104999 0.10652,0.026 0.0154,0.0038 0.0739,0.0208 0.0402,0.007 0.0518,0.0091 0.0624,0.0067 0.0676,0.0042 0.0864,4.81e-4 0.0701,-0.0072 0.13572,-0.0088 0.0361,-0.0088 0.11137,-0.02718 0.10652,-0.026 0.239,-0.104999 0.0538,-0.03264 0.11335,-0.0754 0.0509,-0.03696 0.14301,-0.133998 0.014,-0.01643 0.11301,-0.132576 0.035,-0.05232 0.0707,-0.116482 0.0302,-0.0552 0.0494,-0.126361 0.0254,-0.05712 0.008,-0.02849 0.0217,-0.07711 0.0265,-0.13364 0.0187,-0.139679 0.002,-0.152878 -0.001,-0.06288 -0.011,-0.08544 -0.012,-0.08424 -0.0158,-0.06912 -0.038,-0.13052 -0.0456,-0.116642 -4.4e-4,-8.77e-4 -0.0599,-0.1208 -0.038,-0.05668 -0.084,-0.132476 -0.0192,-0.02168 -0.0225,-0.02537 -0.017,-0.02076 -0.0366,-0.04475 -0.0941,-0.08256 -0.0608,-0.05928 -0.053,-0.04264 -0.224,-0.135998 -0.21791,-0.08519 -0.0251,-0.0098 -0.10752,-0.02256 -0.066,-0.01612 -0.1352,-0.01456 -0.10992,-0.0058 -0.0624,0.0038 -0.0624,0.0096 -0.19396,0.02028 -0.083,0.02208 -0.002,5.65e-4 -0.0718,0.02024 -0.0663,0.02496 -0.12426,0.0546 -0.0858,0.05564 -0.10993,0.06048 -0.0509,0.03696 -0.0263,0.02387 -0.0143,0.01298 -0.0848,0.07702 -0.0902,0.08688 -0.0619,0.08164 -0.0394,0.04896 -0.012,0.01878 -0.0346,0.05418 -0.0515,0.08788 -0.0308,0.06011 -0.001,0.0028 -0.0126,0.03268 -0.01,0.02588"
     id="path4795"
     style="fill:none;stroke:#0000ff;stroke-opacity:1;stroke-width:0.05;stroke-miterlimit:4;stroke-dasharray:none" />
  <path
     d="m 155.66908,64.681717 -0.0211,0.01695 -0.085,0.06833 -0.09,0.094 -0.11,0.142998 -0.078,0.125 -0.10501,0.238998 -0.044,0.157006 -0.002,0.011 -0.0139,0.08987 -0.0134,0.09467 -0.002,0.01429 -0.001,0.11908 -0.001,0.06288 0.012,0.112801 0.007,0.05913 0.003,0.0251 0.007,0.0338 0.0331,0.120964 0.008,0.03276 0.0328,0.09672 0.0437,0.09648 0.0541,0.106079 0.038,0.05668 0.0504,0.07968 0.0125,0.01426 0.0769,0.08766 0.061,0.07152 0.006,0.0049 0.1,0.08036 5.1e-4,4.88e-4 0.0681,0.06383 0.0509,0.03696 0.0205,0.01127 0.0894,0.04921 0.0655,0.039 0.0931,0.04212 0.11904,0.04032 0.0894,0.02808 0.11699,0.01924 0.12384,0.01872 0.0765,0.0026 0.0853,4.81e-4 h 0.001 l 0.0701,-0.0072 0.14404,-0.01456 0.12192,-0.03024 0.13052,-0.03796 0.0619,-0.02756 0.0869,-0.03552 0.0226,-0.01324 0.0585,-0.03428 0.11648,-0.07072 0.053,-0.04264 0.0754,-0.05712 0.0226,-0.0216 0.0263,-0.0252 0.0581,-0.05766 0.003,-0.0028 0.0853,-0.106079 0.0446,-0.05472 0.0509,-0.07968 0.0353,-0.05824 0.0369,-0.07644 0.0394,-0.08398 4.6e-4,-9.84e-4 0.0369,-0.113357 0.0245,-0.07488 0.0154,-0.0768 0.0156,-0.0832 0.009,-0.0936 0.005,-0.152878 -0.006,-0.109916 -0.0203,-0.134163 -0.007,-0.0348 -0.0153,-0.07272 -0.0437,-0.12896 -0.0264,-0.07063 -0.012,-0.0321 -0.0725,-0.121437 -0.0655,-0.11908 -0.0458,-0.06136 -0.0609,-0.07152 -0.0634,-0.06864 -0.051,-0.04523 -0.0686,-0.06432 -0.021,-0.01524 -0.0341,-0.0248 -0.10465,-0.0696 -0.0582,-0.03535 -0.239,-0.105004 -0.254,-0.062 -0.12529,-0.0082 -0.0759,-0.0078 -0.0404,2.21e-4 -0.0532,2.98e-4 -0.0624,0.0038 -0.0676,0.0073 -0.085,0.01489 -0.0682,0.01919 -0.13208,0.03224 -0.0315,0.01384 -0.2075,0.09116 -0.0582,0.03535 -0.0762,0.05071 -0.0284,0.0189 -0.047,0.04176"
     id="path4793"
     style="fill:none;stroke:#0000ff;stroke-opacity:1;stroke-width:0.05;stroke-miterlimit:4;stroke-dasharray:none" />
  <path
     d="m 155.83617,24.51676 -0.003,0.05924 -0.002,0.02968 0.004,0.07956 0.009,0.132 0.0104,0.07852 0.0144,0.072 0.0172,0.07748 0.0202,0.07056 0.0239,0.07592 0.0269,0.06816 0.0479,0.108681 0.0633,0.11664 0.0291,0.052 0.042,0.0628 0.002,0.0032 0.0504,0.07056 0.0702,0.08372 0.048,0.0552 0.0634,0.0624 0.0528,0.05088 0.11901,0.095 0.127,0.085 0.0643,0.03504 0.0874,0.0468 0.0672,0.02976 0.0551,0.0234 0.144,0.049 0.149,0.036 0.151,0.023 0.15201,0.01 0.15199,-0.003 0.002,-2.25e-4 0.14999,-0.01677 0.15001,-0.029 0.146,-0.043 0.0744,-0.0286 0.0931,-0.0384 0.10556,-0.05512 0.073,-0.03888 0.066,-0.0442 0.10415,-0.0744 0.0619,-0.0494 0.0538,-0.04944 0.0572,-0.05512 0.0499,-0.05424 0.052,-0.0598 0.0446,-0.05808 0.0454,-0.06132 0.002,-0.0026 0.048,-0.07776 0.0411,-0.0676 0.067,-0.136999 0.056,-0.142001 0.0172,-0.0572 0.0202,-0.07056 0.0151,-0.0676 0.0144,-0.072 0.014,-0.10816 0.01,-0.10944 0.002,-0.07956 -0.002,-0.03248 -0.006,-0.09952 -0.004,-0.05535 -0.002,-0.02369 -0.0158,-0.08592 -0.0156,-0.09828 -0.006,-0.02042 -0.0152,-0.05602 -0.013,-0.03744 -0.0264,-0.08736 -0.075,-0.175999 -0.073,-0.133001 -0.085,-0.126999 -0.096,-0.118999 -0.10501,-0.111 -0.0552,-0.048 -0.0754,-0.06448 -0.0821,-0.05808 -0.065,-0.04576 -0.072,-0.04032 -0.1222,-0.065 -0.10177,-0.04128 -0.0744,-0.0286 -0.0759,-0.02236 -0.10608,-0.02928 -0.0732,-0.01463 -0.005,-9.67e-4 -0.14544,-0.01584 -0.0406,-0.0045 -0.0385,-0.0043 -0.11856,0.001 -0.073,0.0014 -0.073,0.0082 -0.11805,0.01456 -0.0775,0.01924 -0.14209,0.03504 -0.002,6.74e-4 -0.14594,0.05653 -0.0686,0.0264 -0.002,0.001 -0.0473,0.02252 -0.13571,0.08216 -0.0322,0.01776 -0.0564,0.03585 -0.006,0.0035 -0.0581,0.04464 -0.003,0.0024 -0.0246,0.02157 -0.0264,0.02544 -0.0254,0.0264 -0.17108,0.16432 -0.0355,0.04176 -0.0274,0.037 -0.0636,0.086 -0.079,0.130999 -0.0349,0.07124 -0.0355,0.07392 -0.0291,0.07384 -0.0346,0.09504 -0.0218,0.07592 -0.0173,0.07104 -0.0213,0.127401 -0.01,0.06437 -0.001,0.0081 -0.004,0.08688"
     id="path4791"
     style="fill:none;stroke:#0000ff;stroke-opacity:1;stroke-width:0.05;stroke-miterlimit:4;stroke-dasharray:none" />
  <path
     d="m 145.48378,-101.29747 -0.0758,0.0377 -0.074,0.0368 -0.162,0.119 -0.10717,0.11102 -0.0318,0.033 -0.0619,0.0957 -0.0283,0.0389 -0.0249,0.0413 -0.0259,0.0542 -0.038,0.0863 -0.0202,0.0566 -0.009,0.035 -0.005,0.0235 -0.0244,0.1014 -0.005,0.036 -0.001,0.0128 -0.003,0.0262 -9.2e-4,0.008 -5e-4,0.005 -0.001,0.0931 -0.001,0.052 0.008,0.091 0.009,0.0744 0.0151,0.06344 0.0166,0.0494 0.0466,0.136803 0.0199,0.04004 0.0264,0.05304 0.0619,0.08424 0.0407,0.06334 0.0241,0.03746 0.0749,0.07228 0.0483,0.05354 2e-4,2.21e-4 0.036,0.03168 0.0868,0.05772 0.0389,0.02832 0.0723,0.03942 0.0122,0.0067 0.0468,0.02287 0.19,0.065 0.09,0.01508 0.095,0.0144 0.0588,0.0016 0.0582,-0.0031 0.13776,-0.0082 0.0711,-0.01408 0.0314,-0.0062 0.0494,-0.01664 0.0984,-0.02784 0.179,-0.08901 0.162,-0.118995 0.139,-0.143998 0.111,-0.166999 0.081,-0.183007 0.047,-0.194997 0.013,-0.2 -0.003,-0.052 -0.004,-0.035 -0.006,-0.0605 -0.008,-0.0515 -0.0291,-0.10036 -0.0192,-0.0696 -0.002,-0.005 -0.0439,-0.0883 -0.0389,-0.0878 -0.0148,-0.0202 -0.047,-0.064 -0.0533,-0.0802 -0.0193,-0.0186 -0.0556,-0.0537 -0.0667,-0.0696 -0.0173,-0.0115 -0.0696,-0.0462 -0.0773,-0.0566 -0.0238,-0.0105 -0.0714,-0.0316 -0.0864,-0.0427 -0.0297,-0.009 -0.0625,-0.0182 -0.1014,-0.0244 -0.0955,-0.0101 -0.0582,-0.006 -8.4e-4,1e-5 -0.0709,5.1e-4 -0.072,0.002 -0.0775,0.01 -0.0945,0.0187 -0.0456,0.0154 -0.10036,0.0291 -0.0292,0.0145"
     id="path4789"
     style="fill:none;stroke:#0000ff;stroke-opacity:1;stroke-width:0.05;stroke-miterlimit:4;stroke-dasharray:none" />
  <path
     d="m 159.18559,-25.77072 0.0394,-0.04896 0.0432,-0.06576 0.0463,-0.091 0.0351,-0.07008 0.023,-0.05856 0.0307,-0.07904 0.0173,-0.06048 0.027,-0.115959 0.0125,-0.06144 0.016,-0.178999 -3.1e-4,-0.023 -0.002,-0.123998 -0.007,-0.0624 -0.0144,-0.06912 -0.0297,-0.167441 -0.015,-0.04705 -0.0113,-0.03551 -0.0489,-0.12636 -0.025,-0.05712 -0.0653,-0.107521 -0.0374,-0.06708 -0.0205,-0.0283 -0.0393,-0.05438 -0.061,-0.07152 -0.0629,-0.06864 -0.0515,-0.04524 -0.0946,-0.08256 -0.0764,-0.05356 -0.0787,-0.05136 -0.12895,-0.065 -0.0562,-0.02784 -0.18352,-0.06216 -0.13312,-0.02652 -0.12384,-0.01872 -0.10193,-0.0036 -0.12574,0.0024 -0.10193,0.0083 -0.0666,0.013 -0.0176,0.0035 -0.10524,0.02097 -0.0883,0.03312 -0.12845,0.04368 -0.0385,0.01892 -0.0229,0.01124 -0.0835,0.04272 -0.0523,0.03504 -0.11284,0.0754 -9.7e-4,8.22e-4 -0.071,0.06014 -0.0983,0.09412 -0.0623,0.067 -0.002,0.0016 -0.0473,0.06032 -0.065,0.1092 -0.0696,0.104641 -0.0509,0.114719 -0.04,0.09412 -0.062,0.254 -0.008,0.10944 -0.009,0.135721 4.9e-4,0.0088 0.003,0.06172 0.003,0.04578 0.002,0.02182 0.0173,0.10032 0.0104,0.0676 0.0379,0.13052 0.0261,0.07671 0.0142,0.04185 0.0276,0.06188 0.0702,0.116479 0.0427,0.084 0.0744,0.101278 0.0427,0.05304 0.14,0.136999 0.15399,0.121 0.0582,0.03536 0.1104,0.06048 0.1248,0.0546 0.0586,0.02256 0.2,0.04901 0.0393,0.0096 0.0137,0.0034 0.13573,0.0088 0.0941,0.0077 0.1248,-0.0082 0.13519,-0.01456 0.12192,-0.02976 0.0983,-0.02704 0.18201,-0.074 0.0666,-0.03744 0.0816,-0.04704 0.0764,-0.05356 0.0504,-0.03696 0.0749,-0.06968 0.074,-0.07084 0.0168,-0.01604 0.10399,-0.13416"
     id="path4781"
     style="fill:none;stroke:#0000ff;stroke-opacity:1;stroke-width:0.05;stroke-miterlimit:4;stroke-dasharray:none" />
  <path
     d="m -147.06892,-100.36052 -5.4e-4,0.009 -0.009,0.135 0.001,0.052 0.0144,0.095 0.006,0.052 0.006,0.02412 0.0186,0.07729 0.0312,0.09119 0.0421,0.09516 0.0461,0.08448 0.0577,0.08684 0.06,0.07488 0.0723,0.07488 0.0725,0.06336 0.0406,0.03275 0.171,0.104004 0.187,0.073 0.10243,0.02028 0.10033,0.0192 0.078,0.0026 0.0838,0.0019 6.8e-4,1.5e-5 0.0538,-0.0058 0.0927,-0.0098 0.0108,-0.0011 0.0759,-0.01976 0.0936,-0.02256 0.152,-0.06728 0.031,-0.01372 0.16699,-0.111 0.14402,-0.139 0.11898,-0.161995 0.023,-0.04176 0.0276,-0.05148 0.0274,-0.0672 0.0276,-0.06604 0.002,-0.0057 0.0129,-0.04477 0.0192,-0.0696 0.0228,-0.150483 0.003,-0.048 0.001,-0.052 -0.003,-0.072 -0.002,-0.039 -7.8e-4,-0.013 -0.012,-0.071 -0.0203,-0.10244 -0.0221,-0.0686 -0.038,-0.0972 -0.0394,-0.0811 -0.06,-0.083 -0.0868,-0.12948 -0.0222,-0.0214 -0.0469,-0.0453 -0.0359,-0.038 -0.0203,-0.0162 -0.0608,-0.0487 -0.0802,-0.0533 -0.0757,-0.0413 -0.0158,-0.009 -0.0878,-0.0389 -0.0988,-0.0338 -0.0936,-0.0226 -0.10297,-0.0156 -0.14399,-0.003 -0.0718,-5.2e-4 -0.0883,0.013 -0.0208,0.003 -0.0504,0.0146 -0.13968,0.0346 -0.0484,0.0192 -0.0864,0.0427 -0.0538,0.0293 -0.0378,0.0206 -0.10321,0.0821 -0.0421,0.0307 -0.0532,0.0513 -0.0217,0.021 -0.0328,0.0406 -0.0557,0.0629 -0.10401,0.171 -0.073,0.187 -0.0115,0.047 -0.02,0.10107 -2.8e-4,0.001 -0.003,0.052"
     id="path4779"
     style="fill:none;stroke:#0000ff;stroke-opacity:1;stroke-width:0.05;stroke-miterlimit:4;stroke-dasharray:none" />
  <path
     d="m 158.1452,-9.1655598 0.0706,-0.00528 0.085,-0.01488 0.066,-0.01612 0.13416,-0.053559 0.11904,-0.04032 0.0562,-0.02784 0.008,-0.00499 0.10742,-0.066773 0.0988,-0.066 0.005,-0.0036 0.0952,-0.08476 0.0475,-0.04176 0.0538,-0.057119 0.066,-0.07748 0.0639,-0.08928 0.0379,-0.05668 0.0598,-0.1216803 0.0302,-0.0552 0.0115,-0.02974 0.0336,-0.0869 0.0219,-0.06448 0.002,-0.01 0.0174,-0.0732 0.0192,-0.08448 0.017,-0.146 0.002,-0.09308 9.6e-4,-0.07824 -0.016,-0.163 -0.0135,-0.06656 -0.0144,-0.06912 -0.0219,-0.07332 -0.0264,-0.08256 -0.0249,-0.05712 -0.0302,-0.0552 -0.1222,-0.22256 -0.0744,-0.10128 -0.0432,-0.04512 -0.0475,-0.04176 -0.15236,-0.14768 -0.0562,-0.03796 -0.0107,-0.007 -0.10064,-0.06594 -0.0598,-0.03276 -0.13776,-0.05664 -0.12688,-0.0494 -0.25599,-0.051 -0.13625,-0.0026 -0.0676,0.0073 -0.18817,0.0043 -0.053,0.01299 -0.2,0.04901 -0.0634,0.02444 -0.11519,0.0504 -0.11962,0.06552 -0.0205,0.01246 -0.0332,0.02018 -0.0801,0.06292 -0.0504,0.03696 -0.0638,0.05856 -0.0728,0.07124 -0.0471,0.05232 -0.0533,0.07776 -0.0806,0.10972 -0.02,0.03712 -0.0122,0.02268 -0.0442,0.08304 -0.023,0.05856 -0.0494,0.12636 -0.0211,0.07536 -0.0161,0.06604 -0.012,0.07776 -0.0104,0.0676 -0.005,0.09408 -0.002,0.15288 0.004,0.0624 0.01,0.0624 0.0198,0.117 0.0234,0.08424 0.006,0.02136 0.0244,0.08164 0.0422,0.09312 0.0494,0.1081596 0.0354,0.058241 0.0446,0.07344 0.0624,0.0806 0.0485,0.06192 0.0437,0.04512 0.0588,0.061359 0.003,0.00238 0.0945,0.076341 0.0936,0.07332 0.2213,0.121234 0.009,0.00477 0.12845,0.04368 0.002,6.561e-4 0.0865,0.030544 0.10524,0.015908 0.0289,0.00437 0.0917,0.02112 0.12528,0.00816 0.0227,5.188e-4 0.0454,0.00104 0.13521,-0.01456"
     id="path4777"
     style="fill:none;stroke:#0000ff;stroke-opacity:1;stroke-width:0.05;stroke-miterlimit:4;stroke-dasharray:none" />
  <path
     d="m -15.08724,93.118637 -0.02976,-0.14064 -0.04524,-0.103478 -0.05568,-0.11808 -0.05408,-0.0832 -0.036,-0.05424 -0.1092,-0.111282 -0.06144,-0.06816 -0.03936,-0.03456 -0.181,-0.121002 -0.10348,-0.04524 -0.04704,-0.02304 -0.02541,-0.0086 -0.07347,-0.02496 -0.0546,-0.01612 -0.04765,-0.006 -0.09275,-0.01168 -0.05136,-0.01009 -0.05883,-0.0038 -0.04533,-0.0029 -0.08508,0.0038 -0.007,3.13e-4 -0.07824,0.0072 -0.07644,0.01352 -0.01597,0.0036 -0.06707,0.01511 -0.08112,0.026 -0.0672,0.02448 -0.07696,0.03536 -0.04836,0.02964 -0.09168,0.0504 -0.03896,0.02966 -0.02344,0.01785 -0.0884,0.07072 -0.03792,0.03648 -0.05772,0.06292 -0.06528,0.0816 -0.0097,0.01327 -0.02363,0.03249 -0.04512,0.07968 -0.02964,0.04836 -0.03068,0.06396 -0.02448,0.06384 -0.01456,0.03952 -0.01924,0.06812 -0.02448,0.0984 -0.0056,0.03612 -0.0074,0.04812 -0.0058,0.130562 -0.0021,0.02808 2.99e-4,0.01228 0.0018,0.07301 0.02208,0.118553 0.0031,0.02808 0.0042,0.02808 0.0088,0.0416 0.0364,0.107117 0.05088,0.130561 0.0468,0.08788 0.05808,0.0864 0.05928,0.07904 0.02222,0.02464 0.03058,0.03392 0.03952,0.04108 0.0884,0.07073 0.10368,0.07872 0.05656,0.03109 0.04276,0.02351 0.05252,0.02028 0.13056,0.06001 0.08928,0.02064 0.131041,0.02964 0.0852,0.0055 0.01896,0.0012 0.14144,0.0016 0.10416,-0.01104 0.091,-0.0156 0.10032,-0.02928 0.10712,-0.0364 0.048,-0.02112 0.09932,-0.0546 0.08928,-0.05424 0.0676,-0.05097 0.07872,-0.06911 0.06968,-0.07124 0.0035,-0.0043 0.05456,-0.06628 0.0035,-0.0045 0.02248,-0.02878 0.0408,-0.0672 0.0312,-0.04732 0.0338,-0.0624 0.03168,-0.07152 0.03068,-0.07904 0.02064,-0.07248 0.01768,-0.06864 0.0068,-0.04212 0.01392,-0.0936 0.0042,-0.04212 -0.002,-0.190994 -0.01435,-0.08701 -0.0018,-0.01076 -0.01612,-0.0546"
     id="path4775"
     style="fill:none;stroke:#0000ff;stroke-opacity:1;stroke-width:0.05;stroke-miterlimit:4;stroke-dasharray:none" />
  <path
     d="m -146.4552,71.602402 0.005,0.0018 0.0183,0.007 0.18116,0.06879 0.0485,0.0184 0.0292,0.0052 0.1008,0.0136 0.0212,0.0012 0.0512,0.0016 h 0.592 2.048 4.09599 8.192 32.768009 32.767998 H -48.5 -32.768002 0 h 32.768002 32.768001 65.536007 8.192 4.09599 2.048 0.58561 0.006 l 0.038,-0.0036 0.11841,-0.0096 0.11339,-0.0268 0.0186,-0.0044 0.0366,-0.01079 0.10701,-0.04596 0.0178,-0.0076 0.0192,-0.009 0.0199,-0.01314 0.0119,-0.0079 0.007,-0.0054 0.006,-0.0058 0.0156,-0.01203 0.19801,-0.152771 0.0172,-0.0188 0.0824,-0.1072 0.019,-0.028 0.064,-0.119995 0.014,-0.03101 0.0424,-0.1288 0.009,-0.0328 0.0224,-0.1848 0.003,-0.0254 2e-4,-0.0084 v -0.064 V 69.632004 65.536003 49.152 32.768002 16.384001 0 -16.384001 -32.768002 -49.152 -65.536003 -81.919998 -90.112 v -2.048004 -0.619995 l -0.002,-0.0254 -0.005,-0.05084 -0.0101,-0.101165 -0.005,-0.025 -0.0765,-0.201599 -0.0194,-0.0512 -0.002,-0.0082 -0.003,-0.008 -0.0162,-0.0346 -0.0116,-0.0178 -0.0776,-0.110398 -0.0164,-0.0194 -0.096,-0.096 -0.0254,-0.0224 -0.1104,-0.0776 -0.029,-0.0178 -0.0628,-0.03037 -0.0596,-0.02882 -0.0314,-0.0126 -0.2312,-0.0504 -0.0206,-0.0052 -0.006,-5.42e-4 -0.0323,-0.0031 -0.0512,-0.0016 h -0.592 -2.048 -4.09599 -8.192 H 65.536003 32.768002 0 h -32.768002 -32.768001 -65.536007 -8.192 -4.09599 -2.048 -0.58561 -0.006 l -0.038,0.0036 -0.11841,0.0096 -0.13201,0.0312 -0.0366,0.0108 -0.10701,0.04595 -0.0178,0.0076 -0.0302,0.01521 -0.1136,0.0736 -0.0274,0.0202 -0.1,0.0912 -0.015,0.015 -0.0146,0.01915 -0.009,0.01125 -0.004,0.0072 -0.004,0.0076 -0.14614,0.226799 -2.6e-4,3.97e-4 -0.01,0.0234 -0.0424,0.128799 -0.01,0.04121 -0.0224,0.184799 -0.002,0.0254 v 0.619995 2.048004 8.192002 16.383995 V -49.152 -32.768002 -16.384001 0 v 16.384001 16.384001 32.768001 4.096001 1.023994 0.064 l 0.002,0.0254 0.005,0.05083 0.0101,0.101166 0.005,0.025 0.096,0.2528 0.002,0.0082 0.003,0.008 0.0162,0.0346 0.0116,0.0178 0.0776,0.110405 0.0106,0.0132 0.0134,0.0127 0.0113,0.0107 0.007,0.0052 0.007,0.005 0.01,0.0081 0.19672,0.165458 0.0144,0.0088 0.015,0.0068 0.016,0.0072 0.008,0.0026 0.008,0.0024"
     id="path4771"
     style="fill:none;stroke:#0000ff;stroke-opacity:1;stroke-width:0.05;stroke-miterlimit:4;stroke-dasharray:none" />
  <path
     d="m -141.40884,95.199364 0.0614,-0.100884 0.002,-0.005 0.0335,-0.08633 0.007,-0.01843 0.0499,-0.119042 0.007,-0.02847 0.008,-0.03057 0.0203,-0.09308 0.0106,-0.08112 0.007,-0.08112 3.1e-4,-0.03802 1.8e-4,-0.02293 -0.006,-0.07488 -0.007,-0.117516 -0.0216,-0.094 -0.0164,-0.071 -0.057,-0.160004 -0.002,-0.004 -0.0225,-0.04496 -0.0614,-0.109719 -0.0398,-0.06336 -0.0494,-0.06396 -0.0379,-0.048 -0.078,-0.082 -0.177,-0.141998 -0.10348,-0.05668 -0.0466,-0.02784 -0.0369,-0.01787 -0.0246,-0.01189 -0.0832,-0.02964 -0.0379,-0.0144 -0.009,-0.0022 -0.0704,-0.01794 -0.0705,-0.01698 -7.7e-4,-1.83e-4 -0.0442,-0.0062 -0.0806,-0.01152 -0.11752,-0.0026 -0.10848,0.0024 -0.11648,0.0182 -0.0567,0.01612 -0.13297,0.02927 -0.0533,0.02371 -0.046,0.02046 -0.13312,0.06292 -0.0686,0.04416 -0.0728,0.04992 -0.0629,0.05184 -0.005,0.005 -0.0796,0.07663 -0.0547,0.06049 -0.047,0.06672 -0.0697,0.09515 -0.007,0.01318 -0.0365,0.07178 -0.0348,0.065 -0.005,0.01376 -0.0312,0.08244 -0.0101,0.02496 -0.0192,0.06528 -0.009,0.0456 -0.0147,0.07764 -0.0168,0.107521 0.004,0.168999 -9.6e-4,0.05424 0.003,0.02813 0.009,0.08034 0.0286,0.113884 0.0216,0.07824 0.0333,0.08216 0.0442,0.09984 0.0406,0.0702 0.0363,0.05813 0.007,0.01099 0.0389,0.04704 0.0775,0.09827 0.029,0.02899 0.0238,0.02382 0.0396,0.03198 0.003,0.0021 0.0884,0.07748 0.0456,0.03024 0.15496,0.08476 0.0538,0.0288 0.0691,0.02879 0.0556,0.01924 0.0523,0.01488 0.11597,0.02288 0.10751,0.0168 0.0879,0.0031 0.10849,-0.0024 0.0884,-0.0068 0.10704,-0.02112 0.11439,-0.02808 0.0888,-0.0336 0.0681,-0.02756 0.0894,-0.05096 0.0245,-0.01199 0.0282,-0.01804 0.0634,-0.04052 0.092,-0.07384 0.071,-0.06336 0.0775,-0.0884 0.0682,-0.08496 0.0278,-0.04655"
     id="path4769"
     style="fill:none;stroke:#0000ff;stroke-opacity:1;stroke-width:0.05;stroke-miterlimit:4;stroke-dasharray:none" />
  <path
     d="m 14.50456,-105.1826 -0.0026,0.10192 0.0026,0.0343 0.01248,0.10512 0.01196,0.0842 0.03504,0.12048 0.0208,0.0822 0.01187,0.0302 0.02557,0.065 0.02544,0.0571 0.02854,0.0541 0.0011,0.002 0.06528,0.10752 0.07436,0.10868 0.08256,0.0941 0.08892,0.091 0.09792,0.0787 0.10972,0.0806 0.10992,0.0605 0.11388,0.0572 0.07176,0.0255 0.07344,0.0278 0.0173,0.004 0.05854,0.0148 0.13364,0.0265 0.0624,0.01 0.12528,0.002 h 0.16952 l 0.0624,-0.007 0.128959,-0.0265 0.06084,-0.0148 0.03943,-0.01 0.02165,-0.005 0.05856,-0.0226 0.100361,-0.0348 0.06084,-0.0302 0.08352,-0.0437 0.05232,-0.035 0.11336,-0.0754 0.0025,-0.002 0.09158,-0.0804 0.09776,-0.0941 0.07872,-0.0979 0.09724,-0.13936 0.04004,-0.0728 0.02044,-0.0372 0.04368,-0.092 0.04032,-0.11904 0.03796,-0.13052 0.0096,-0.0461 0.01056,-0.0936 0.01456,-0.16952 -0.0038,-0.10944 -0.01456,-0.1352 -0.02448,-0.12336 -0.03796,-0.13052 -0.02016,-0.0595 -0.04032,-0.085 -0.06032,-0.12168 -0.0806,-0.10972 -0.0504,-0.0797 -0.0024,-0.003 -0.03695,-0.046 -0.09024,-0.0869 -0.0468,-0.0489 -0.106079,-0.0853 -0.04478,-0.0325 -0.0061,-0.004 -0.0884,-0.0504 -0.0744,-0.0432 -0.01177,-0.005 -0.05254,-0.0239 -0.078,-0.0343 -0.05952,-0.0202 -0.08436,-0.0234 -0.03004,-0.008 -0.12336,-0.0245 -0.12528,-0.002 -0.14404,-0.0146 -0.09138,0.004 -0.0017,8e-5 -0.0676,0.0104 -0.12384,0.0187 -0.16172,0.051 -0.06048,0.0178 -0.01217,0.005 -0.08911,0.0376 -0.01449,0.007 -0.03179,0.015 -0.0672,0.0403 -0.0442,0.0255 -0.01033,0.007 -0.06611,0.0463 -0.07488,0.0571 -0.08164,0.0744 -0.0768,0.0787 -0.06604,0.0775 -0.06384,0.0893 -0.03024,0.0552 -0.08528,0.14716 -0.01162,0.0297 -0.03398,0.0869 -0.03952,0.11232 -0.02448,0.12336 -0.01716,0.0832 -0.0011,0.009 -0.0051,0.0415 -2.8e-5,2.3e-4 -0.0029,0.11376"
     id="path4767"
     style="fill:none;stroke:#0000ff;stroke-opacity:1;stroke-width:0.05;stroke-miterlimit:4;stroke-dasharray:none" />
  <path
     d="m 159.06236,-34.341801 0.004,-0.242401 -0.0265,-0.133117 -0.0197,-0.09168 -0.002,-0.007 -0.0178,-0.05252 -0.0494,-0.12688 -0.0254,-0.0576 -0.136,-0.223 -0.172,-0.196999 -0.20401,-0.164001 -0.1099,-0.06 -0.0582,-0.03536 -0.0335,-0.01472 -0.0908,-0.03988 -0.0586,-0.02304 -0.12192,-0.02976 -0.0655,-0.01872 -0.0306,-0.0047 -0.10353,-0.01605 -0.0444,-0.0046 -0.0257,-0.0026 -0.10191,5.18e-4 -0.0864,4.81e-4 -0.047,0.0043 -0.0741,0.0091 -0.0273,0.0034 -0.066,0.01664 -0.10752,0.02304 -0.0595,0.02016 -0.0941,0.03642 -0.0322,0.01246 -0.0598,0.03276 -0.11232,0.0552 -0.0768,0.05472 -0.0941,0.06912 -0.0156,0.01149 -0.0489,0.0468 -0.0696,0.06288 -0.06,0.07248 -0.0728,0.09059 -0.0125,0.01549 -0.0354,0.05824 -0.0514,0.0792 -0.064,0.132999 -0.0585,0.161999 -0.003,0.007 -0.051,0.255997 0.002,0.186679 -0.004,0.06288 0.001,0.0624 0.004,0.02981 0.009,0.06379 0.01,0.05097 0.006,0.03275 0.0192,0.065 0.0235,0.09072 0.047,0.122002 0.0478,0.08996 0.0605,0.10992 0.0577,0.08424 0.0787,0.09792 0.0697,0.07488 0.0696,0.06336 0.0598,0.05093 0.0177,0.01511 0.0567,0.03744 0.0768,0.05424 0.1942,0.09628 0.0398,0.01973 0.13052,0.03796 0.0595,0.02016 0.12336,0.02448 0.0676,0.0104 0.196,0.007 0.083,-0.0068 0.112,-0.0092 0.0615,-0.012 0.13208,-0.03224 0.11903,-0.04032 0.12428,-0.0546 0.0768,-0.03984 0.0582,-0.03536 0.096,-0.06768 0.0551,-0.04004 0.0983,-0.09412 0.0787,-0.0768 0.11801,-0.155998 0.099,-0.169003 0.0456,-0.117119 0.0557,-0.15184 0.0158,-0.06864 0.0156,-0.07488 0.002,-0.01589 0.006,-0.05171 0.002,-0.0676 -0.004,-0.06812"
     id="path4765"
     style="fill:none;stroke:#0000ff;stroke-opacity:1;stroke-width:0.05;stroke-miterlimit:4;stroke-dasharray:none" />
  <path
     d="m 29.107559,-102.4006 0.0054,6e-4 0.06759,0.008 0.07296,0.001 0.108679,-0.005 0.06566,-0.004 0.0073,-4.8e-4 0.09828,-0.0151 0.0615,-0.0107 0.03786,-0.007 0.133122,-0.0385 0.06192,-0.0163 0.06906,-0.0249 6.1e-5,-2e-5 0.0336,-0.0149 0.09984,-0.0442 0.0648,-0.0336 0.04852,-0.0279 0.02012,-0.0116 0.03328,-0.0218 0.03172,-0.0239 0.0912,-0.0614 0.117,-0.098 0.05616,-0.0562 0.06384,-0.0653 0.06292,-0.0764 0.0672,-0.0874 0.03288,-0.0541 0.005,-0.008 0.08216,-0.13572 0.04656,-0.0998 0.03224,-0.0728 0.049,-0.144 0.036,-0.149 0.023,-0.151 0.0047,-0.12844 0.0043,-0.12768 -0.0062,-0.073 -0.02306,-0.16892 -0.0024,-0.0178 -0.0058,-0.0365 -0.01584,-0.0715 -0.05096,-0.15028 -0.01008,-0.035 -0.02496,-0.0691 -9.44e-4,-0.002 -0.0389,-0.0806 -0.03484,-0.0712 -0.04108,-0.0676 -0.02792,-0.0452 -0.02008,-0.0325 -0.09932,-0.12376 -0.02208,-0.0293 -0.03385,-0.0404 -0.01319,-0.0158 -0.05184,-0.0518 -0.0572,-0.0546 -0.07056,-0.0581 -0.06188,-0.0499 -0.127001,-0.085 -0.134001,-0.073 -0.139999,-0.062 -0.143999,-0.049 -0.149,-0.036 -0.07852,-0.012 -0.0816,-0.0115 -0.07904,-0.005 -0.100321,-0.004 -0.05099,0.001 -0.02804,5.5e-4 -0.07904,0.009 -0.10944,0.01 -0.149999,0.03 -0.146,0.042 -0.021,0.008 -0.122002,0.0478 -0.136999,0.067 -0.129999,0.079 -0.123001,0.091 -0.115,0.1 -0.0504,0.0528 -0.06812,0.0723 -0.04608,0.0571 -0.04836,0.0629 -0.0408,0.061 -0.04264,0.0671 -0.03504,0.0643 -0.02756,0.0525 -0.062,0.14 -0.049,0.144 -0.036,0.149 -0.005,0.033 -0.006,0.0395 -0.01248,0.0884 -0.0048,0.10944 -0.0047,0.10868 0.01,0.152 0.023,0.151 0.036,0.149 0.049,0.144 0.062,0.14 0.03796,0.0697 0.08688,0.13968 0.06864,0.0972 0.05952,0.0696 0.052,0.0598 0.110001,0.105 0.118999,0.096 0.127001,0.085 0.134001,0.073 0.139999,0.062 0.051,0.0173 0.02388,0.008 0.07824,0.0254 0.07748,0.0187 0.09411,0.0207 0.0043,9.4e-4 0.157558,0.0172"
     id="path4763"
     style="fill:none;stroke:#0000ff;stroke-opacity:1;stroke-width:0.05;stroke-miterlimit:4;stroke-dasharray:none" />
  <path
     d="m -146.08543,81.744881 -0.18914,0.0288 -0.0972,0.03796 -0.10896,0.0504 -0.0889,0.05408 -0.005,0.0039 -0.0725,0.05325 -0.0785,0.06863 -0.0667,0.06912 -0.065,0.08112 -0.0533,0.08016 -0.0499,0.09152 -0.0389,0.08784 -0.0338,0.0988 -0.0226,0.0936 -0.0156,0.102959 -0.001,0.052 -0.006,0.09599 0.003,0.049 1.9e-4,0.003 0.0101,0.09552 0.008,0.05148 0.024,0.098 0.032,0.095 0.041,0.09199 0.048,0.08701 0.056,0.084 0.0302,0.03744 0.0505,0.05928 0.0331,0.03504 0.036,0.03168 0.0785,0.06864 0.0389,0.02832 0.0845,0.04608 0.0655,0.04263 0.0671,0.02971 0.028,0.01241 0.0446,0.01776 0.0346,0.009 0.11142,0.029 0.0645,0.0099 0.0715,0.0096 0.048,9.62e-4 0.091,5.19e-4 0.048,-0.0029 0.10295,-0.01612 0.0946,-0.01872 0.0401,-0.01224 0.0348,-0.01064 0.0898,-0.03504 0.0418,-0.02304 0.0191,-0.0095 0.074,-0.0368 0.0441,-0.02943 0.0399,-0.02657 0.078,-0.063 0.073,-0.069 0.095,-0.115997 0.082,-0.126007 0.044,-0.09 0.037,-0.093 0.028,-0.097 0.019,-0.098 0.011,-0.1 3e-5,-10e-4 0.002,-0.099 -0.006,-0.1 -0.015,-0.099 -0.024,-0.09801 -0.032,-0.09499 -0.041,-0.092 -0.10401,-0.170998 -0.13198,-0.151001 -0.14852,-0.119003 -0.007,-0.006 -0.176,-0.096 -0.19,-0.065 -0.11905,-0.01488 -0.051,-0.0099 -0.078,-0.0062 -0.0386,0.0013 -0.0394,0.0013 -0.0515,0.0078 -0.051,0.01248"
     id="path4761"
     style="fill:none;stroke:#0000ff;stroke-opacity:1;stroke-width:0.05;stroke-miterlimit:4;stroke-dasharray:none" />
  <path
     d="m -158.96815,-12.39468 -0.12769,-0.0029 -0.079,0.0016 -0.0821,0.0082 -0.079,0.0088 -0.14999,0.03 -0.14601,0.042 -0.0485,0.019 -0.0635,0.02486 -0.031,0.01214 -0.13701,0.067 -0.13001,0.079 -0.12298,0.091 -0.11501,0.1 -0.0546,0.0572 -0.0739,0.08112 -0.0499,0.06188 -0.0634,0.08976 -0.0442,0.06604 -0.073,0.134 -0.062,0.14 -0.007,0.02 -0.0422,0.124 -0.036,0.149 -0.023,0.151 -0.01,0.152 0.003,0.152 0.011,0.114 0.012,0.076 0.014,0.075 0.008,0.031 0.0111,0.043 0.021,0.073 0.038,0.108 0.062,0.1399996 0.073,0.1340008 0.085,0.1269998 0.096,0.1189995 0.10499,0.1100006 0.11501,0.099999 0.12298,0.091001 0.13001,0.079 0.13701,0.067 0.031,0.012139 0.112,0.04386 0.14601,0.042 0.14999,0.030001 0.15199,0.016999 0.15201,0.003 0.152,-0.01 0.151,-0.023 0.149,-0.036 0.144,-0.049 0.13999,-0.062 0.13401,-0.073 0.127,-0.085 0.119,-0.096 0.11,-0.1049996 0.10001,-0.1150007 0.01,-0.013516 0.081,-0.1094838 0.079,-0.1299991 0.067,-0.1370001 0.056,-0.1430003 0.042,-0.146 0.001,-0.006 0.0102,-0.04776 0.0166,-0.08788 0.011,-0.0912 0.009,-0.10868 v -0.10944 l -0.002,-0.07904 -0.017,-0.152 -0.03,-0.15 -0.042,-0.146 -0.056,-0.143 -0.067,-0.137 -0.079,-0.13 -0.081,-0.109483 -0.01,-0.01352 -0.10001,-0.115 -0.11,-0.105 -0.119,-0.096 -0.127,-0.085 -0.13401,-0.073 -0.13999,-0.062 -0.0206,-0.007 -0.12343,-0.042 -0.149,-0.036 -0.0785,-0.01196 -0.0816,-0.01152 -0.079,-0.0052"
     id="path4759"
     style="fill:none;stroke:#0000ff;stroke-opacity:1;stroke-width:0.05;stroke-miterlimit:4;stroke-dasharray:none" />
  <path
     d="m -159.744,-32.776077 0.021,0.0081 0.091,0.035 0.14601,0.043 0.14999,0.029 0.15199,0.017 0.079,0.0016 0.0821,9.62e-4 0.11854,-0.0104 0.10033,-0.0091 0.14999,-0.029 0.14601,-0.043 0.091,-0.035 0.052,-0.02 0.13701,-0.068 0.12999,-0.079 0.123,-0.09 0.11501,-0.100997 0.105,-0.110001 0.059,-0.07314 0.037,-0.04586 0.085,-0.126998 0.073,-0.134003 0.062,-0.14 0.0476,-0.13972 0.001,-0.0043 0.025,-0.116477 0.0235,-0.107522 0.008,-0.07248 0.0109,-0.118561 v -0.10992 l -0.002,-0.07904 -0.017,-0.151996 -0.03,-0.150002 -0.003,-0.01 -0.0391,-0.135998 -0.056,-0.142002 -0.067,-0.136997 -0.079,-0.131001 -0.081,-0.109485 -0.01,-0.01352 -0.10001,-0.114997 -0.11,-0.105004 -0.119,-0.096 -0.127,-0.084 -0.13401,-0.074 -0.13999,-0.061 -0.0749,-0.02548 -0.0783,-0.02592 -0.0775,-0.01924 -0.0984,-0.0216 -0.11804,-0.01456 -0.073,-0.0082 -0.10945,9.61e-4 -0.11857,-0.001 -0.0202,0.0023 -0.0589,0.0066 -0.10894,0.01344 -0.10662,0.0234 -0.0715,0.01776 -0.0847,0.02808 -0.0691,0.02352 -0.04,0.01743 -0.1,0.04357 -0.13401,0.074 -0.127,0.084 -0.119,0.096 -0.11,0.105004 -0.10001,0.114997 -0.091,0.123001 -0.079,0.131001 -0.067,0.136997 -0.056,0.142002 -0.0391,0.135998 -0.003,0.01 -0.03,0.150002 -0.009,0.07904 -0.008,0.09303 -0.001,0.01641 0.001,0.07344 v 0.119079 l 0.009,0.07852 0.013,0.09984 0.0255,0.116482 0.0187,0.08016 0.0367,0.108002 0.0123,0.036 0.062,0.14 0.073,0.134003 0.085,0.126998 0.096,0.119 0.10499,0.110001 0.11501,0.100997 0.12298,0.09 0.13001,0.079 0.13701,0.068 0.031,0.01192"
     id="path4757"
     style="fill:none;stroke:#0000ff;stroke-opacity:1;stroke-width:0.05;stroke-miterlimit:4;stroke-dasharray:none" />
  <path
     d="m -157.32202,24.576 -0.003,-0.08152 -0.002,-0.03648 -0.008,-0.076 -0.012,-0.076 -0.024,-0.112 -0.042,-0.146 -0.056,-0.142 -0.067,-0.137001 -0.079,-0.130999 -0.081,-0.109483 -0.01,-0.01352 L -157.806,23.4 l -0.11,-0.105 -0.119,-0.096 -0.127,-0.084 -0.13401,-0.074 -0.13999,-0.061 -0.144,-0.049 -0.149,-0.037 -0.151,-0.023 -0.152,-0.01 -0.15201,0.003 -0.15199,0.017 -0.14999,0.03 -0.14601,0.043 -0.112,0.04308 -0.031,0.01193 -0.13701,0.067 -0.13001,0.08 -0.12298,0.09 -0.11501,0.100001 -0.10499,0.111 -0.0767,0.095 -0.0194,0.024 -0.085,0.126999 -0.073,0.133001 -0.062,0.14 -0.038,0.108 -0.021,0.073 -0.019,0.074 -0.014,0.075 -0.012,0.076 -0.008,0.076 -0.004,0.118 -0.002,0.072 0.01,0.153 0.023,0.150999 0.036,0.148 0.049,0.143999 0.062,0.140002 0.073,0.133999 0.085,0.127 0.096,0.119 0.10499,0.110001 0.11501,0.100999 0.12298,0.09 0.13001,0.079 0.13701,0.068 0.031,0.01192 0.112,0.04308 0.14601,0.043 0.14999,0.029 0.12854,0.01438 0.0234,0.0026 h 0.10946 l 0.079,0.0016 0.11856,-0.0104 0.0729,-0.0082 0.14999,-0.029 0.14601,-0.043 0.14299,-0.055 0.13701,-0.068 0.12999,-0.079 0.123,-0.09 0.11501,-0.100999 0.105,-0.110001 0.059,-0.07314 0.037,-0.04586 0.085,-0.127 0.073,-0.133999 0.062,-0.140002 0.049,-0.143999 0.036,-0.148 0.023,-0.150999 0.01,-0.153 -4.9e-4,-0.05472 -5.3e-4,-0.01728"
     id="path4753"
     style="fill:none;stroke:#0000ff;stroke-opacity:1;stroke-width:0.05;stroke-miterlimit:4;stroke-dasharray:none" />
  <path
     d="m -142.4832,90.79644 0.0363,-8.01e-4 0.0408,-0.0058 0.14663,-0.01248 0.0398,-0.0086 0.0172,-0.0042 0.0401,-0.0098 0.13968,-0.05232 0.0556,-0.01924 0.0541,-0.0234 0.0889,-0.05252 0.0917,-0.05856 0.0317,-0.02593 0.0796,-0.06552 0.0753,-0.07824 0.0775,-0.08839 0.06,-0.09072 0.0535,-0.08788 0.008,-0.013 0.0349,-0.07866 0.009,-0.0207 0.0426,-0.109718 0.04,-0.162804 0.009,-0.05876 0.006,-0.05424 0.004,-0.0806 9.4e-4,-0.06564 3e-5,-0.0025 -0.002,-0.02689 -0.005,-0.08112 -0.005,-0.0408 -0.011,-0.05328 -0.0219,-0.100365 -0.0149,-0.05232 -0.0197,-0.0504 -0.0316,-0.07676 -0.0245,-0.05949 -0.0245,-0.04896 -0.058,-0.097 -0.067,-0.092 -0.036,-0.04079 -0.0603,-0.06448 -0.0393,-0.03744 -0.092,-0.07385 -0.0423,-0.03407 -9.9e-4,-6.11e-4 -0.0921,-0.05603 -0.10296,-0.05616 -0.0827,-0.0312 -0.10801,-0.0408 -3.5e-4,-8.4e-5 -0.0568,-0.01395 -0.073,-0.01632 -0.0588,-0.0088 -0.004,-4.58e-4 -0.0499,-0.0053 -0.0879,-0.0031 -0.10849,0.0024 -0.0884,0.0068 -0.10704,0.02112 -0.11439,0.02808 -0.0514,0.01776 -0.0499,0.0216 -0.10764,0.04784 -0.0475,0.0264 -0.0505,0.03016 -0.0456,0.03024 -0.0478,0.03484 -0.0422,0.03408 -0.0254,0.02269 -0.024,0.02151 -0.0576,0.0576 -0.0546,0.0598 -0.0341,0.04224 -0.0348,0.04784 -0.0302,0.0456 -0.0302,0.05044 -0.0264,0.04752 -0.0265,0.05304 -0.0216,0.04992 -0.0213,0.0546 -0.0178,0.05136 -0.0161,0.05668 -0.0129,0.0528 -0.0141,0.07228 -0.01,0.06768 -0.005,0.102959 -0.002,0.05424 0.002,0.05425 0.0109,0.106598 0.005,0.0408 0.0139,0.06624 0.0198,0.08216 0.0264,0.07728 0.0322,0.08216 0.0432,0.08496 0.002,0.003 0.0658,0.111396 0.0643,0.08785 0.0369,0.04576 0.11701,0.112694 0.046,0.0443 0.189,0.125 0.207,0.092 0.0998,0.02547 0.098,0.02406 0.008,0.0019 0.10295,0.0099 0.0542,0.0058 0.0722,-0.0016"
     id="path4745"
     style="fill:none;stroke:#0000ff;stroke-opacity:1;stroke-width:0.05;stroke-miterlimit:4;stroke-dasharray:none" />
  <path
     id="path4646"
     d="m -28.943758,-102.40061 0.005,6.1e-4 0.0676,0.008 0.073,10e-4 0.10868,-0.005 0.0657,-0.004 0.007,-4.8e-4 0.0983,-0.0151 0.0615,-0.0107 0.0379,-0.007 0.13312,-0.0385 0.0619,-0.0163 0.0691,-0.0249 6e-5,-2e-5 0.0336,-0.0149 0.0998,-0.0442 0.0648,-0.0336 0.0485,-0.0279 0.0201,-0.0116 0.0333,-0.0218 0.0317,-0.0239 0.0912,-0.0614 0.117,-0.098 0.0562,-0.0562 0.0638,-0.0653 0.0629,-0.0764 0.0672,-0.0874 0.0329,-0.0541 0.005,-0.008 0.0822,-0.13572 0.0466,-0.0998 0.0322,-0.0728 0.049,-0.144 0.036,-0.149 0.023,-0.151 0.005,-0.12844 0.004,-0.12768 -0.006,-0.073 -0.0231,-0.16892 -0.002,-0.0178 -0.006,-0.0365 -0.0158,-0.0715 -0.051,-0.15028 -0.0101,-0.035 -0.025,-0.0691 -9.5e-4,-0.002 -0.0389,-0.0806 -0.0348,-0.0712 -0.0411,-0.0676 -0.0279,-0.0452 -0.0201,-0.0325 -0.0993,-0.12376 -0.0221,-0.0293 -0.0339,-0.0404 -0.0132,-0.0158 -0.0518,-0.0518 -0.0572,-0.0546 -0.0706,-0.0581 -0.0619,-0.0499 -0.127,-0.085 -0.134,-0.073 -0.14,-0.062 -0.144,-0.049 -0.149,-0.036 -0.0785,-0.012 -0.0816,-0.0115 -0.079,-0.005 -0.10032,-0.004 -0.051,10e-4 -0.028,5.5e-4 -0.079,0.009 -0.10944,0.01 -0.15,0.03 -0.146,0.042 -0.021,0.008 -0.122,0.0478 -0.137,0.067 -0.13,0.079 -0.123,0.091 -0.115,0.1 -0.0504,0.0528 -0.0681,0.0723 -0.0461,0.0571 -0.0484,0.0629 -0.0408,0.061 -0.0426,0.0671 -0.035,0.0643 -0.0276,0.0525 -0.062,0.14 -0.049,0.144 -0.036,0.149 -0.005,0.033 -0.006,0.0395 -0.0125,0.0884 -0.005,0.10944 -0.005,0.10868 0.01,0.152 0.023,0.151 0.036,0.149 0.049,0.144 0.062,0.14 0.038,0.0697 0.0869,0.13968 0.0686,0.0972 0.0595,0.0696 0.052,0.0598 0.11,0.105 0.119,0.096 0.127,0.085 0.134,0.073 0.14,0.062 0.051,0.0173 0.0239,0.008 0.0782,0.0254 0.0775,0.0187 0.0941,0.0207 0.004,9.5e-4 0.15756,0.0172"
     style="fill:none;stroke:#0000ff;stroke-width:0.01mm"
     inkscape:connector-curvature="0" />
</svg>
