<?xml version="1.0"?>
<!DOCTYPE svg PUBLIC "-//W3C//DTD SVG 1.1//EN" "http://www.w3.org/Graphics/SVG/1.1/DTD/svg11.dtd">
<svg width="346.58mm" height="238.185mm" viewBox="0 0 346.58 238.185" xmlns="http://www.w3.org/2000/svg" version="1.1">
<g id="novena" transform="translate(0,238.185) scale(1,-1)">
<title>novena</title>
<path id="novena_1" d="M 260.335 31.850 l 0 2.250 a 2.250 2.250 0 0 0 2.250 -2.250 l -4.5 0 a 2.250 2.250 0 0 1 2.250 -2.250 l 0 2.250 0 Z" stroke="#000000" stroke-width="0mm" style="fill:#cc0000" />
<path id="novena_2" d="M 285.335 31.850 l 0 2.250 a 2.250 2.250 0 0 0 2.250 -2.250 l -4.5 0 a 2.250 2.250 0 0 1 2.250 -2.250 l 0 2.250 0 Z" stroke="#000000" stroke-width="0mm" style="fill:#cc0000" />
<path id="novena_3" d="M 209.580 32.000 l 0 2.500 a 2.500 2.500 0 0 0 2.500 -2.500 l -5 0 a 2.500 2.500 0 0 1 2.500 -2.500 l 0 2.500 0 Z" stroke="#000000" stroke-width="0mm" style="fill:#cc0000" />
<path id="novena_4" d="M 253.580 32.000 l 0 2.250 a 2.250 2.250 0 0 0 2.250 -2.250 l -4.5 0 a 2.250 2.250 0 0 1 2.250 -2.250 l 0 2.250 0 Z" stroke="#000000" stroke-width="0mm" style="fill:#cc0000" />
<path id="novena_5" d="M 324.580 32.000 l 0 0.800 a 0.800 0.800 0 0 0 0.800 -0.800 l -1.6 0 a 0.800 0.800 0 0 1 0.800 -0.800 l 0 0.800 0 Z" stroke="#000000" stroke-width="0mm" style="fill:#cc0000" />
<path id="novena_6" d="M 253.580 59.000 l 0 2.250 a 2.250 2.250 0 0 0 2.250 -2.250 l -4.5 0 a 2.250 2.250 0 0 1 2.250 -2.250 l 0 2.250 0 Z" stroke="#000000" stroke-width="0mm" style="fill:#cc0000" />
<path id="novena_7" d="M 268.361 75.619 l 0 2.250 a 2.250 2.250 0 0 0 2.250 -2.250 l -4.5 0 a 2.250 2.250 0 0 1 2.250 -2.250 l 0 2.250 0 Z" stroke="#000000" stroke-width="0mm" style="fill:#cc0000" />
<path id="novena_8" d="M 242.199 101.781 l 0 2.250 a 2.250 2.250 0 0 0 2.250 -2.250 l -4.5 0 a 2.250 2.250 0 0 1 2.250 -2.250 l 0 2.250 0 Z" stroke="#000000" stroke-width="0mm" style="fill:#cc0000" />
<path id="novena_9" d="M 303.580 161.000 l 0 2.250 a 2.250 2.250 0 0 0 2.250 -2.250 l -4.5 0 a 2.250 2.250 0 0 1 2.250 -2.250 l 0 2.250 0 Z" stroke="#000000" stroke-width="0mm" style="fill:#cc0000" />
<path id="novena_10" d="M 209.580 176.000 l 0 0.800 a 0.800 0.800 0 0 0 0.800 -0.800 l -1.6 0 a 0.800 0.800 0 0 1 0.800 -0.800 l 0 0.800 0 Z" stroke="#000000" stroke-width="0mm" style="fill:#cc0000" />
<path id="novena_11" d="M 270.580 176.000 l 0 2.250 a 2.250 2.250 0 0 0 2.250 -2.250 l -4.5 0 a 2.250 2.250 0 0 1 2.250 -2.250 l 0 2.250 0 Z" stroke="#000000" stroke-width="0mm" style="fill:#cc0000" />
<path id="novena_12" d="M 306.580 176.000 l 0 2.250 a 2.250 2.250 0 0 0 2.250 -2.250 l -4.5 0 a 2.250 2.250 0 0 1 2.250 -2.250 l 0 2.250 0 Z" stroke="#000000" stroke-width="0mm" style="fill:#cc0000" />
<path id="novena_13" d="M 324.580 176.000 l 0 0.800 a 0.800 0.800 0 0 0 0.800 -0.800 l -1.6 0 a 0.800 0.800 0 0 1 0.800 -0.800 l 0 0.800 0 Z" stroke="#000000" stroke-width="0mm" style="fill:#cc0000" />
</g>
<g id="senoko" transform="translate(0,238.185) scale(1,-1)">
<title>senoko</title>
<path id="senoko_1" d="M 266.555 182.460 l 0 1.050 a 1.050 1.050 0 0 0 1.050 -1.050 l -2.1 0 a 1.050 1.050 0 0 1 1.050 -1.050 l 0 1.050 0 Z" stroke="#000000" stroke-width="0mm" style="fill:#00cc00" />
<path id="senoko_2" d="M 324.555 182.460 l 0 1.050 a 1.050 1.050 0 0 0 1.050 -1.050 l -2.1 0 a 1.050 1.050 0 0 1 1.050 -1.050 l 0 1.050 0 Z" stroke="#000000" stroke-width="0mm" style="fill:#00cc00" />
<path id="senoko_3" d="M 224.055 198.460 l 0 1.050 a 1.050 1.050 0 0 0 1.050 -1.050 l -2.1 0 a 1.050 1.050 0 0 1 1.050 -1.050 l 0 1.050 0 Z" stroke="#000000" stroke-width="0mm" style="fill:#00cc00" />
<path id="senoko_4" d="M 246.555 217.460 l 0 1.050 a 1.050 1.050 0 0 0 1.050 -1.050 l -2.1 0 a 1.050 1.050 0 0 1 1.050 -1.050 l 0 1.050 0 Z" stroke="#000000" stroke-width="0mm" style="fill:#00cc00" />
<path id="senoko_5" d="M 324.555 217.460 l 0 1.050 a 1.050 1.050 0 0 0 1.050 -1.050 l -2.1 0 a 1.050 1.050 0 0 1 1.050 -1.050 l 0 1.050 0 Z" stroke="#000000" stroke-width="0mm" style="fill:#00cc00" />
</g>
<g id="hd" transform="translate(0,238.185) scale(1,-1)">
<title>hd</title>
<path id="hd_1" d="M 107.040 20.725 l 0 2.500 a 2.500 2.500 0 0 0 2.500 -2.500 l -5 0 a 2.500 2.500 0 0 1 2.500 -2.500 l 0 2.500 0 Z" stroke="#000000" stroke-width="0mm" style="fill:#0000cc" />
<path id="hd_2" d="M 200.500 20.725 l 0 2.500 a 2.500 2.500 0 0 0 2.500 -2.500 l -5 0 a 2.500 2.500 0 0 1 2.500 -2.500 l 0 2.500 0 Z" stroke="#000000" stroke-width="0mm" style="fill:#0000cc" />
<path id="hd_3" d="M 107.040 100.575 l 0 2.500 a 2.500 2.500 0 0 0 2.500 -2.500 l -5 0 a 2.500 2.500 0 0 1 2.500 -2.500 l 0 2.500 0 Z" stroke="#000000" stroke-width="0mm" style="fill:#0000cc" />
<path id="hd_4" d="M 200.500 100.575 l 0 2.500 a 2.500 2.500 0 0 0 2.500 -2.500 l -5 0 a 2.500 2.500 0 0 1 2.500 -2.500 l 0 2.500 0 Z" stroke="#000000" stroke-width="0mm" style="fill:#0000cc" />
</g>
<g id="peek_batt" transform="translate(0,238.185) scale(1,-1)">
<title>peek_batt</title>
<path id="peek_batt_1" d="M 112 142 l 0 2.5 a 2.5 2.5 0 0 0 2.5 -2.5 l -5 0 a 2.5 2.5 0 0 1 2.5 -2.5 l 0 2.5 0 Z" stroke="#000000" stroke-width="0mm" style="fill:#cc00cc" />
<path id="peek_batt_2" d="M 142 142 l 0 2.5 a 2.5 2.5 0 0 0 2.5 -2.5 l -5 0 a 2.5 2.5 0 0 1 2.5 -2.5 l 0 2.5 0 Z" stroke="#000000" stroke-width="0mm" style="fill:#cc00cc" />
<path id="peek_batt_3" d="M 22 172 l 0 2.5 a 2.5 2.5 0 0 0 2.5 -2.5 l -5 0 a 2.5 2.5 0 0 1 2.5 -2.5 l 0 2.5 0 Z" stroke="#000000" stroke-width="0mm" style="fill:#cc00cc" />
<path id="peek_batt_4" d="M 112 202 l 0 2.5 a 2.5 2.5 0 0 0 2.5 -2.5 l -5 0 a 2.5 2.5 0 0 1 2.5 -2.5 l 0 2.5 0 Z" stroke="#000000" stroke-width="0mm" style="fill:#cc00cc" />
<path id="peek_batt_5" d="M 142 202 l 0 2.5 a 2.5 2.5 0 0 0 2.5 -2.5 l -5 0 a 2.5 2.5 0 0 1 2.5 -2.5 l 0 2.5 0 Z" stroke="#000000" stroke-width="0mm" style="fill:#cc00cc" />
</g>
<g id="peek_fp" transform="translate(0,238.185) scale(1,-1)">
<title>peek_fp</title>
<path id="peek_fp_1" d="M 52 22 l 0 2.5 a 2.5 2.5 0 0 0 2.5 -2.5 l -5 0 a 2.5 2.5 0 0 1 2.5 -2.5 l 0 2.5 0 Z" stroke="#000000" stroke-width="0mm" style="fill:#cccc00" />
<path id="peek_fp_2" d="M 82 22 l 0 2.5 a 2.5 2.5 0 0 0 2.5 -2.5 l -5 0 a 2.5 2.5 0 0 1 2.5 -2.5 l 0 2.5 0 Z" stroke="#000000" stroke-width="0mm" style="fill:#cccc00" />
<path id="peek_fp_3" d="M 67 37 l 0 2.5 a 2.5 2.5 0 0 0 2.5 -2.5 l -5 0 a 2.5 2.5 0 0 1 2.5 -2.5 l 0 2.5 0 Z" stroke="#000000" stroke-width="0mm" style="fill:#cccc00" />
</g>
<g id="peek" transform="translate(0,238.185) scale(1,-1)">
<title>peek</title>
<path id="peek_1" d="M 22 22 l 0 2.5 a 2.5 2.5 0 0 0 2.5 -2.5 l -5 0 a 2.5 2.5 0 0 1 2.5 -2.5 l 0 2.5 0 Z" stroke="#000000" stroke-width="0mm" style="fill:#00cccc" />
<path id="peek_2" d="M 37 37 l 0 2.5 a 2.5 2.5 0 0 0 2.5 -2.5 l -5 0 a 2.5 2.5 0 0 1 2.5 -2.5 l 0 2.5 0 Z" stroke="#000000" stroke-width="0mm" style="fill:#00cccc" />
<path id="peek_3" d="M 22 52 l 0 2.5 a 2.5 2.5 0 0 0 2.5 -2.5 l -5 0 a 2.5 2.5 0 0 1 2.5 -2.5 l 0 2.5 0 Z" stroke="#000000" stroke-width="0mm" style="fill:#00cccc" />
<path id="peek_4" d="M 52 52 l 0 2.5 a 2.5 2.5 0 0 0 2.5 -2.5 l -5 0 a 2.5 2.5 0 0 1 2.5 -2.5 l 0 2.5 0 Z" stroke="#000000" stroke-width="0mm" style="fill:#00cccc" />
<path id="peek_5" d="M 82 52 l 0 2.5 a 2.5 2.5 0 0 0 2.5 -2.5 l -5 0 a 2.5 2.5 0 0 1 2.5 -2.5 l 0 2.5 0 Z" stroke="#000000" stroke-width="0mm" style="fill:#00cccc" />
<path id="peek_6" d="M 37 67 l 0 2.5 a 2.5 2.5 0 0 0 2.5 -2.5 l -5 0 a 2.5 2.5 0 0 1 2.5 -2.5 l 0 2.5 0 Z" stroke="#000000" stroke-width="0mm" style="fill:#00cccc" />
<path id="peek_7" d="M 67 67 l 0 2.5 a 2.5 2.5 0 0 0 2.5 -2.5 l -5 0 a 2.5 2.5 0 0 1 2.5 -2.5 l 0 2.5 0 Z" stroke="#000000" stroke-width="0mm" style="fill:#00cccc" />
<path id="peek_8" d="M 22 82 l 0 2.5 a 2.5 2.5 0 0 0 2.5 -2.5 l -5 0 a 2.5 2.5 0 0 1 2.5 -2.5 l 0 2.5 0 Z" stroke="#000000" stroke-width="0mm" style="fill:#00cccc" />
<path id="peek_9" d="M 52 82 l 0 2.5 a 2.5 2.5 0 0 0 2.5 -2.5 l -5 0 a 2.5 2.5 0 0 1 2.5 -2.5 l 0 2.5 0 Z" stroke="#000000" stroke-width="0mm" style="fill:#00cccc" />
<path id="peek_10" d="M 82 82 l 0 2.5 a 2.5 2.5 0 0 0 2.5 -2.5 l -5 0 a 2.5 2.5 0 0 1 2.5 -2.5 l 0 2.5 0 Z" stroke="#000000" stroke-width="0mm" style="fill:#00cccc" />
<path id="peek_11" d="M 37 97 l 0 2.5 a 2.5 2.5 0 0 0 2.5 -2.5 l -5 0 a 2.5 2.5 0 0 1 2.5 -2.5 l 0 2.5 0 Z" stroke="#000000" stroke-width="0mm" style="fill:#00cccc" />
<path id="peek_12" d="M 67 97 l 0 2.5 a 2.5 2.5 0 0 0 2.5 -2.5 l -5 0 a 2.5 2.5 0 0 1 2.5 -2.5 l 0 2.5 0 Z" stroke="#000000" stroke-width="0mm" style="fill:#00cccc" />
<path id="peek_13" d="M 22 112 l 0 2.5 a 2.5 2.5 0 0 0 2.5 -2.5 l -5 0 a 2.5 2.5 0 0 1 2.5 -2.5 l 0 2.5 0 Z" stroke="#000000" stroke-width="0mm" style="fill:#00cccc" />
<path id="peek_14" d="M 52 112 l 0 2.5 a 2.5 2.5 0 0 0 2.5 -2.5 l -5 0 a 2.5 2.5 0 0 1 2.5 -2.5 l 0 2.5 0 Z" stroke="#000000" stroke-width="0mm" style="fill:#00cccc" />
<path id="peek_15" d="M 82 112 l 0 2.5 a 2.5 2.5 0 0 0 2.5 -2.5 l -5 0 a 2.5 2.5 0 0 1 2.5 -2.5 l 0 2.5 0 Z" stroke="#000000" stroke-width="0mm" style="fill:#00cccc" />
<path id="peek_16" d="M 112 112 l 0 2.5 a 2.5 2.5 0 0 0 2.5 -2.5 l -5 0 a 2.5 2.5 0 0 1 2.5 -2.5 l 0 2.5 0 Z" stroke="#000000" stroke-width="0mm" style="fill:#00cccc" />
<path id="peek_17" d="M 142 112 l 0 2.5 a 2.5 2.5 0 0 0 2.5 -2.5 l -5 0 a 2.5 2.5 0 0 1 2.5 -2.5 l 0 2.5 0 Z" stroke="#000000" stroke-width="0mm" style="fill:#00cccc" />
<path id="peek_18" d="M 172 112 l 0 2.5 a 2.5 2.5 0 0 0 2.5 -2.5 l -5 0 a 2.5 2.5 0 0 1 2.5 -2.5 l 0 2.5 0 Z" stroke="#000000" stroke-width="0mm" style="fill:#00cccc" />
<path id="peek_19" d="M 202 112 l 0 2.5 a 2.5 2.5 0 0 0 2.5 -2.5 l -5 0 a 2.5 2.5 0 0 1 2.5 -2.5 l 0 2.5 0 Z" stroke="#000000" stroke-width="0mm" style="fill:#00cccc" />
<path id="peek_20" d="M 37 127 l 0 2.5 a 2.5 2.5 0 0 0 2.5 -2.5 l -5 0 a 2.5 2.5 0 0 1 2.5 -2.5 l 0 2.5 0 Z" stroke="#000000" stroke-width="0mm" style="fill:#00cccc" />
<path id="peek_21" d="M 67 127 l 0 2.5 a 2.5 2.5 0 0 0 2.5 -2.5 l -5 0 a 2.5 2.5 0 0 1 2.5 -2.5 l 0 2.5 0 Z" stroke="#000000" stroke-width="0mm" style="fill:#00cccc" />
<path id="peek_22" d="M 97 127 l 0 2.5 a 2.5 2.5 0 0 0 2.5 -2.5 l -5 0 a 2.5 2.5 0 0 1 2.5 -2.5 l 0 2.5 0 Z" stroke="#000000" stroke-width="0mm" style="fill:#00cccc" />
<path id="peek_23" d="M 127 127 l 0 2.5 a 2.5 2.5 0 0 0 2.5 -2.5 l -5 0 a 2.5 2.5 0 0 1 2.5 -2.5 l 0 2.5 0 Z" stroke="#000000" stroke-width="0mm" style="fill:#00cccc" />
<path id="peek_24" d="M 157 127 l 0 2.5 a 2.5 2.5 0 0 0 2.5 -2.5 l -5 0 a 2.5 2.5 0 0 1 2.5 -2.5 l 0 2.5 0 Z" stroke="#000000" stroke-width="0mm" style="fill:#00cccc" />
<path id="peek_25" d="M 187 127 l 0 2.5 a 2.5 2.5 0 0 0 2.5 -2.5 l -5 0 a 2.5 2.5 0 0 1 2.5 -2.5 l 0 2.5 0 Z" stroke="#000000" stroke-width="0mm" style="fill:#00cccc" />
<path id="peek_26" d="M 22 142 l 0 2.5 a 2.5 2.5 0 0 0 2.5 -2.5 l -5 0 a 2.5 2.5 0 0 1 2.5 -2.5 l 0 2.5 0 Z" stroke="#000000" stroke-width="0mm" style="fill:#00cccc" />
<path id="peek_27" d="M 52 142 l 0 2.5 a 2.5 2.5 0 0 0 2.5 -2.5 l -5 0 a 2.5 2.5 0 0 1 2.5 -2.5 l 0 2.5 0 Z" stroke="#000000" stroke-width="0mm" style="fill:#00cccc" />
<path id="peek_28" d="M 82 142 l 0 2.5 a 2.5 2.5 0 0 0 2.5 -2.5 l -5 0 a 2.5 2.5 0 0 1 2.5 -2.5 l 0 2.5 0 Z" stroke="#000000" stroke-width="0mm" style="fill:#00cccc" />
<path id="peek_29" d="M 172 142 l 0 2.5 a 2.5 2.5 0 0 0 2.5 -2.5 l -5 0 a 2.5 2.5 0 0 1 2.5 -2.5 l 0 2.5 0 Z" stroke="#000000" stroke-width="0mm" style="fill:#00cccc" />
<path id="peek_30" d="M 202 142 l 0 2.5 a 2.5 2.5 0 0 0 2.5 -2.5 l -5 0 a 2.5 2.5 0 0 1 2.5 -2.5 l 0 2.5 0 Z" stroke="#000000" stroke-width="0mm" style="fill:#00cccc" />
<path id="peek_31" d="M 37 157 l 0 2.5 a 2.5 2.5 0 0 0 2.5 -2.5 l -5 0 a 2.5 2.5 0 0 1 2.5 -2.5 l 0 2.5 0 Z" stroke="#000000" stroke-width="0mm" style="fill:#00cccc" />
<path id="peek_32" d="M 67 157 l 0 2.5 a 2.5 2.5 0 0 0 2.5 -2.5 l -5 0 a 2.5 2.5 0 0 1 2.5 -2.5 l 0 2.5 0 Z" stroke="#000000" stroke-width="0mm" style="fill:#00cccc" />
<path id="peek_33" d="M 97 157 l 0 2.5 a 2.5 2.5 0 0 0 2.5 -2.5 l -5 0 a 2.5 2.5 0 0 1 2.5 -2.5 l 0 2.5 0 Z" stroke="#000000" stroke-width="0mm" style="fill:#00cccc" />
<path id="peek_34" d="M 127 157 l 0 2.5 a 2.5 2.5 0 0 0 2.5 -2.5 l -5 0 a 2.5 2.5 0 0 1 2.5 -2.5 l 0 2.5 0 Z" stroke="#000000" stroke-width="0mm" style="fill:#00cccc" />
<path id="peek_35" d="M 157 157 l 0 2.5 a 2.5 2.5 0 0 0 2.5 -2.5 l -5 0 a 2.5 2.5 0 0 1 2.5 -2.5 l 0 2.5 0 Z" stroke="#000000" stroke-width="0mm" style="fill:#00cccc" />
<path id="peek_36" d="M 187 157 l 0 2.5 a 2.5 2.5 0 0 0 2.5 -2.5 l -5 0 a 2.5 2.5 0 0 1 2.5 -2.5 l 0 2.5 0 Z" stroke="#000000" stroke-width="0mm" style="fill:#00cccc" />
<path id="peek_37" d="M 52 172 l 0 2.5 a 2.5 2.5 0 0 0 2.5 -2.5 l -5 0 a 2.5 2.5 0 0 1 2.5 -2.5 l 0 2.5 0 Z" stroke="#000000" stroke-width="0mm" style="fill:#00cccc" />
<path id="peek_38" d="M 82 172 l 0 2.5 a 2.5 2.5 0 0 0 2.5 -2.5 l -5 0 a 2.5 2.5 0 0 1 2.5 -2.5 l 0 2.5 0 Z" stroke="#000000" stroke-width="0mm" style="fill:#00cccc" />
<path id="peek_39" d="M 112 172 l 0 2.5 a 2.5 2.5 0 0 0 2.5 -2.5 l -5 0 a 2.5 2.5 0 0 1 2.5 -2.5 l 0 2.5 0 Z" stroke="#000000" stroke-width="0mm" style="fill:#00cccc" />
<path id="peek_40" d="M 142 172 l 0 2.5 a 2.5 2.5 0 0 0 2.5 -2.5 l -5 0 a 2.5 2.5 0 0 1 2.5 -2.5 l 0 2.5 0 Z" stroke="#000000" stroke-width="0mm" style="fill:#00cccc" />
<path id="peek_41" d="M 172 172 l 0 2.5 a 2.5 2.5 0 0 0 2.5 -2.5 l -5 0 a 2.5 2.5 0 0 1 2.5 -2.5 l 0 2.5 0 Z" stroke="#000000" stroke-width="0mm" style="fill:#00cccc" />
<path id="peek_42" d="M 202 172 l 0 2.5 a 2.5 2.5 0 0 0 2.5 -2.5 l -5 0 a 2.5 2.5 0 0 1 2.5 -2.5 l 0 2.5 0 Z" stroke="#000000" stroke-width="0mm" style="fill:#00cccc" />
<path id="peek_43" d="M 37 187 l 0 2.5 a 2.5 2.5 0 0 0 2.5 -2.5 l -5 0 a 2.5 2.5 0 0 1 2.5 -2.5 l 0 2.5 0 Z" stroke="#000000" stroke-width="0mm" style="fill:#00cccc" />
<path id="peek_44" d="M 67 187 l 0 2.5 a 2.5 2.5 0 0 0 2.5 -2.5 l -5 0 a 2.5 2.5 0 0 1 2.5 -2.5 l 0 2.5 0 Z" stroke="#000000" stroke-width="0mm" style="fill:#00cccc" />
<path id="peek_45" d="M 97 187 l 0 2.5 a 2.5 2.5 0 0 0 2.5 -2.5 l -5 0 a 2.5 2.5 0 0 1 2.5 -2.5 l 0 2.5 0 Z" stroke="#000000" stroke-width="0mm" style="fill:#00cccc" />
<path id="peek_46" d="M 127 187 l 0 2.5 a 2.5 2.5 0 0 0 2.5 -2.5 l -5 0 a 2.5 2.5 0 0 1 2.5 -2.5 l 0 2.5 0 Z" stroke="#000000" stroke-width="0mm" style="fill:#00cccc" />
<path id="peek_47" d="M 157 187 l 0 2.5 a 2.5 2.5 0 0 0 2.5 -2.5 l -5 0 a 2.5 2.5 0 0 1 2.5 -2.5 l 0 2.5 0 Z" stroke="#000000" stroke-width="0mm" style="fill:#00cccc" />
<path id="peek_48" d="M 187 187 l 0 2.5 a 2.5 2.5 0 0 0 2.5 -2.5 l -5 0 a 2.5 2.5 0 0 1 2.5 -2.5 l 0 2.5 0 Z" stroke="#000000" stroke-width="0mm" style="fill:#00cccc" />
<path id="peek_49" d="M 22 202 l 0 2.5 a 2.5 2.5 0 0 0 2.5 -2.5 l -5 0 a 2.5 2.5 0 0 1 2.5 -2.5 l 0 2.5 0 Z" stroke="#000000" stroke-width="0mm" style="fill:#00cccc" />
<path id="peek_50" d="M 52 202 l 0 2.5 a 2.5 2.5 0 0 0 2.5 -2.5 l -5 0 a 2.5 2.5 0 0 1 2.5 -2.5 l 0 2.5 0 Z" stroke="#000000" stroke-width="0mm" style="fill:#00cccc" />
<path id="peek_51" d="M 82 202 l 0 2.5 a 2.5 2.5 0 0 0 2.5 -2.5 l -5 0 a 2.5 2.5 0 0 1 2.5 -2.5 l 0 2.5 0 Z" stroke="#000000" stroke-width="0mm" style="fill:#00cccc" />
<path id="peek_52" d="M 172 202 l 0 2.5 a 2.5 2.5 0 0 0 2.5 -2.5 l -5 0 a 2.5 2.5 0 0 1 2.5 -2.5 l 0 2.5 0 Z" stroke="#000000" stroke-width="0mm" style="fill:#00cccc" />
<path id="peek_53" d="M 202 202 l 0 2.5 a 2.5 2.5 0 0 0 2.5 -2.5 l -5 0 a 2.5 2.5 0 0 1 2.5 -2.5 l 0 2.5 0 Z" stroke="#000000" stroke-width="0mm" style="fill:#00cccc" />
</g>
</svg>
