<?xml version="1.0"?>
<!DOCTYPE svg PUBLIC "-//W3C//DTD SVG 1.1//EN" "http://www.w3.org/Graphics/SVG/1.1/DTD/svg11.dtd">
<svg width="195.289056528mm" height="124.854348891mm" viewBox="0 0 195.289056528 124.854348891" xmlns="http://www.w3.org/2000/svg" version="1.1">
<g transform="translate(43.3744572947,132.494600213) scale(1,-1)">
<path id="Face004" d="M -41.459858647 9.55484991543 L -41.4598587013 130.554849215 L -0.459859421335 130.554849234 L -0.459859367036 9.55484993383 L -41.459858647 9.55484991543 Z M -38.4598596206 129.004849777 A 1.44999964 1.44999964 0 0 0 -38.4598596193 126.104850497 A 1.44999964 1.44999964 0 0 0 -38.4598596206 129.004849777 Z M -3.45985850064 129.004849792 A 1.44999964 1.44999964 0 0 0 -3.45985849934 126.104850512 A 1.44999964 1.44999964 0 0 0 -3.45985850064 129.004849792 Z M -38.4598595856 51.0048482968 A 1.44999964 1.44999964 0 0 0 -38.4598595843 48.1048490168 A 1.44999964 1.44999964 0 0 0 -38.4598595856 51.0048482968 Z M -3.45985847461 71.0048489525 A 1.44999964 1.44999964 0 0 0 -3.45985847331 68.1048496725 A 1.44999964 1.44999964 0 0 0 -3.45985847461 71.0048489525 Z M -19.4598594755 28.5048501253 A 1.44999964 1.44999964 0 0 0 -19.4598594742 25.6048508453 A 1.44999964 1.44999964 0 0 0 -19.4598594755 28.5048501253 Z " stroke="#191919" stroke-width="0.35 px" style="stroke-width:0.35;stroke-miterlimit:4;stroke-dasharray:none;fill:#cccccc;fill-rule: evenodd "/>
</g>
<g transform="translate(43.3744572947,132.494600213) scale(1,-1)">
<path id="Face129" d="M 0.0 130.58000162 L 150.00000064 130.58000162 L 150.00000064 9.57999978 L 0.0 9.57999978 L 0.0 130.58000162 Z M 3.0 129.02999964 A 1.44999964 1.44999964 0 0 1 3.0 126.13000036 A 1.44999964 1.44999964 0 0 1 3.0 129.02999964 Z M 3.0 111.03000008 A 1.44999964 1.44999964 0 0 1 3.0 108.1300008 A 1.44999964 1.44999964 0 0 1 3.0 111.03000008 Z M 18.00000048 108.02999846 A 1.44999964 1.44999964 0 0 1 18.00000048 105.12999918 A 1.44999964 1.44999964 0 0 1 18.00000048 108.02999846 Z M 147.00000156 129.02999964 A 1.44999964 1.44999964 0 0 1 147.00000156 126.13000036 A 1.44999964 1.44999964 0 0 1 147.00000156 129.02999964 Z M 3.0 75.02999842 A 1.44999964 1.44999964 0 0 1 3.0 72.12999914 A 1.44999964 1.44999964 0 0 1 3.0 75.02999842 Z M 77.21900066 46.79899824 A 1.59999934 1.59999934 0 0 1 77.21900066 43.59899956 A 1.59999934 1.59999934 0 0 1 77.21900066 46.79899824 Z M 3.0 14.0299985 A 1.44999964 1.44999964 0 0 1 3.0 11.12999922 A 1.44999964 1.44999964 0 0 1 3.0 14.0299985 Z M 103.38100066 72.96099824 A 1.59999934 1.59999934 0 0 1 103.38100066 69.76099956 A 1.59999934 1.59999934 0 0 1 103.38100066 72.96099824 Z M 147.15000888 89.9350029 A 1.59999934 1.59999934 0 0 1 147.15000888 86.73500422 A 1.59999934 1.59999934 0 0 1 147.15000888 89.9350029 Z M 119.99999968 58.0299994 A 1.44999964 1.44999964 0 0 1 119.99999968 55.13000012 A 1.44999964 1.44999964 0 0 1 119.99999968 58.0299994 Z M 147.15000888 64.9350021 A 1.59999934 1.59999934 0 0 1 147.15000888 61.73500342 A 1.59999934 1.59999934 0 0 1 147.15000888 64.9350021 Z M 147.00000156 58.0299994 A 1.44999964 1.44999964 0 0 1 147.00000156 55.13000012 A 1.44999964 1.44999964 0 0 1 147.00000156 58.0299994 Z M 147.00000156 14.0299985 A 1.44999964 1.44999964 0 0 1 147.00000156 11.12999922 A 1.44999964 1.44999964 0 0 1 147.00000156 14.0299985 Z " stroke="#191919" stroke-width="0.35 px" style="stroke-width:0.35;stroke-miterlimit:4;stroke-dasharray:none;fill:#cccccc;fill-rule: evenodd "/>
</g>
</svg>
